<?xml version="1.0" encoding="UTF-8"?>
<svg version="1.1" xmlns="http://www.w3.org/2000/svg" width="512" height="512">
<path d="M0 0 C6.80052076 2.13007325 12.66797385 0.46883753 19.29296875 -1.359375 C26.21334642 -3.17991714 33.09441347 -4.70595345 40.16796875 -5.796875 C41.28413574 -5.96956909 41.28413574 -5.96956909 42.42285156 -6.14575195 C51.29312848 -7.45375199 60.0877755 -8.20409825 69.0546875 -8.25 C70.43865723 -8.26058945 70.43865723 -8.26058945 71.85058594 -8.27139282 C110.13512832 -8.49789763 110.13512832 -8.49789763 127.04296875 -5.046875 C128.05697754 -4.84819824 129.07098633 -4.64952148 130.11572266 -4.44482422 C177.46864011 5.02575927 222.59593445 27.06672016 257.16748047 61.10839844 C259.1446564 63.05314478 261.14216079 64.97559086 263.140625 66.8984375 C271.55137657 75.06544208 279.12167659 83.49500898 286.04296875 92.953125 C286.68806396 93.82300049 286.68806396 93.82300049 287.34619141 94.71044922 C310.25800887 125.6665947 325.53585597 160.49524438 333.29296875 198.203125 C333.44419189 198.93370117 333.59541504 199.66427734 333.7512207 200.41699219 C336.781594 216.11128009 337.4161792 231.6330298 337.35546875 247.578125 C337.3533136 248.59636353 337.35115845 249.61460205 337.34893799 250.66369629 C337.29923484 265.2879134 336.98504863 279.58117138 334.04296875 293.953125 C333.84960938 294.94973145 333.65625 295.94633789 333.45703125 296.97314453 C325.33825002 338.06194555 307.9688176 375.15611994 282.04296875 407.953125 C281.23085938 408.99082031 280.41875 410.02851563 279.58203125 411.09765625 C266.90716106 426.67135321 252.34359264 441.20563789 236.04296875 452.953125 C234.95459514 453.76932333 233.86736731 454.5870516 232.78125 455.40625 C202.95166287 477.62767552 168.41315612 492.46667316 132.04296875 499.953125 C130.5412915 500.26854248 130.5412915 500.26854248 129.00927734 500.59033203 C97.28933586 506.94236725 61.66921934 506.63921153 30.04296875 499.953125 C29.00108398 499.73350098 27.95919922 499.51387695 26.88574219 499.28759766 C-19.40752436 489.18997715 -61.82116846 466.83083742 -95.95703125 433.953125 C-96.61638672 433.32100098 -97.27574219 432.68887695 -97.95507812 432.03759766 C-107.4433343 422.89315021 -116.18323565 413.59578491 -123.95703125 402.953125 C-124.81509277 401.80207483 -125.67316576 400.65103323 -126.53125 399.5 C-132.56957341 391.31006364 -137.96278753 382.81512177 -142.95703125 373.953125 C-143.60889404 372.80312012 -143.60889404 372.80312012 -144.27392578 371.62988281 C-157.23259365 348.52984893 -165.87567255 323.61924137 -171.20703125 297.703125 C-171.35825439 296.97254883 -171.50947754 296.24197266 -171.6652832 295.48925781 C-174.66326318 279.96273475 -175.32961697 264.60284912 -175.26953125 248.828125 C-175.26770844 247.83455994 -175.26588562 246.84099487 -175.26400757 245.81732178 C-175.21928961 231.3423955 -174.83157479 217.18464639 -171.95703125 202.953125 C-171.75352051 201.92993164 -171.55000977 200.90673828 -171.34033203 199.85253906 C-167.86937447 182.69015465 -167.86937447 182.69015465 -165.95703125 176.953125 C-165.51756822 171.12483664 -166.78405583 166.86975538 -168.76953125 161.515625 C-179.79214387 129.51051992 -177.46606551 94.2709067 -162.9921875 63.74609375 C-147.85253233 33.04701478 -121.83466563 9.56404776 -89.51953125 -1.921875 C-87.00101423 -2.67235568 -84.49646125 -3.38018839 -81.95703125 -4.046875 C-81.26722168 -4.24007324 -80.57741211 -4.43327148 -79.86669922 -4.63232422 C-54.04234151 -11.67010802 -24.74676234 -10.20611813 0 0 Z M-78.95703125 11.953125 C-79.62943848 12.16211426 -80.3018457 12.37110352 -80.99462891 12.58642578 C-97.4367127 17.82888622 -111.33435674 26.26862224 -123.95703125 37.953125 C-124.7665625 38.68144531 -125.57609375 39.40976562 -126.41015625 40.16015625 C-145.67852324 58.31688668 -158.44799826 85.82284922 -159.390625 112.25 C-159.41398387 114.73426553 -159.41482302 117.21883253 -159.39453125 119.703125 C-159.38695801 121.0142627 -159.37938477 122.32540039 -159.37158203 123.67626953 C-159.19872425 133.90011345 -158.10775762 143.23239082 -154.95703125 152.953125 C-154.74272461 153.6347168 -154.52841797 154.31630859 -154.30761719 155.01855469 C-149.72501184 169.24664379 -142.76989549 181.63924902 -132.95703125 192.953125 C-132.29316406 193.76136719 -131.62929687 194.56960937 -130.9453125 195.40234375 C-120.72667261 207.43427279 -107.97639599 215.80113408 -94.02905273 222.93994141 C-92.29214201 223.86207344 -90.61906324 224.90201319 -88.95703125 225.953125 C-87.86157351 229.56169168 -87.54456674 231.74745952 -88.76953125 235.328125 C-89.95703125 236.953125 -89.95703125 236.953125 -91.95703125 237.953125 C-97.19180985 238.49199927 -100.90919725 236.9485854 -105.45703125 234.578125 C-106.15481689 234.21944336 -106.85260254 233.86076172 -107.5715332 233.49121094 C-125.69007181 223.90954806 -139.86122618 210.33942606 -151.95703125 193.953125 C-152.61703125 194.283125 -153.27703125 194.613125 -153.95703125 194.953125 C-154.59943605 197.14109903 -154.59943605 197.14109903 -154.9921875 199.80078125 C-155.24645508 201.29834961 -155.24645508 201.29834961 -155.50585938 202.82617188 C-155.67537109 203.87869141 -155.84488281 204.93121094 -156.01953125 206.015625 C-156.27959961 207.55379883 -156.27959961 207.55379883 -156.54492188 209.12304688 C-158.03829181 218.06610133 -159.11333328 226.68770263 -159.125 235.75390625 C-159.1299926 237.12943916 -159.1299926 237.12943916 -159.13508606 238.53276062 C-159.14012262 240.46316022 -159.1424954 242.39356844 -159.14233398 244.32397461 C-159.14451714 247.24673095 -159.16269886 250.16910727 -159.18164062 253.09179688 C-159.26569018 280.31847135 -149.51594056 297.7732248 -133.78637695 319.30224609 C-128.6186032 326.37827353 -123.65855736 333.5585713 -118.95703125 340.953125 C-118.59770508 341.51386719 -118.23837891 342.07460938 -117.86816406 342.65234375 C-110.51554891 354.28099592 -102.06733292 370.12566333 -103.24609375 384.26953125 C-104.42048633 395.92056345 -104.42048633 395.92056345 -101.00390625 406.70703125 C-98.65414244 409.23199675 -96.32527593 411.40647337 -93.63818359 413.54736328 C-91.19884447 415.58711273 -89.07357381 417.88916061 -86.88745117 420.19360352 C-80.36815816 427.00877143 -73.34759637 432.96050443 -65.78955078 438.58251953 C-63.82823864 440.0494535 -61.89081776 441.54500294 -59.953125 443.04296875 C-58.62197115 444.05584164 -57.2899611 445.06759045 -55.95703125 446.078125 C-55.34609619 446.55209717 -54.73516113 447.02606934 -54.10571289 447.5144043 C-50.43437943 450.2498383 -47.5708022 451.7895161 -42.95703125 451.953125 C-37.45428473 449.14560127 -32.9366917 444.89210635 -30.95703125 438.953125 C-28.83643803 419.62443922 -39.83435783 398.78676792 -47.24145508 381.47265625 C-55.60332466 361.77718945 -56.00644715 342.84562556 -48.39453125 322.640625 C-42.73768544 308.90591128 -34.63609564 296.34089534 -26.79052734 283.78637695 C-18.79953065 270.95324776 -11.52386804 258.02862291 -5.95703125 243.953125 C-10.02420507 242.59740039 -13.12930593 243.78547836 -17.14453125 244.828125 C-27.06576077 247.36753944 -36.28755383 248.1143017 -46.51953125 248.078125 C-47.61716797 248.08199219 -48.71480469 248.08585938 -49.84570312 248.08984375 C-56.44129434 248.08189246 -62.6493743 248.05567732 -68.95703125 245.953125 C-69.06527968 244.3504468 -69.1427377 242.74566752 -69.20703125 241.140625 C-69.2534375 240.24730469 -69.29984375 239.35398438 -69.34765625 238.43359375 C-68.95703125 235.953125 -68.95703125 235.953125 -67.32324219 234.30761719 C-64.24344933 232.54464868 -62.24155411 232.66952099 -58.70703125 232.80078125 C-57.46840332 232.83155762 -56.22977539 232.86233398 -54.95361328 232.89404297 C-53.63474121 232.93416504 -52.31586914 232.97428711 -50.95703125 233.015625 C-27.20212674 233.43696494 1.03948367 228.6184347 19.33203125 211.85546875 C21.43163053 209.32254791 23.22572303 206.69760597 25.04296875 203.953125 C26.08189755 202.4672192 27.12529196 200.98443083 28.171875 199.50390625 C30.58996512 196.07754623 32.99199404 192.64075391 35.3828125 189.1953125 C38.79987299 184.28379722 42.28439412 179.42449395 45.79296875 174.578125 C46.32615723 173.83224121 46.8593457 173.08635742 47.40869141 172.31787109 C49.83215617 168.93787383 52.28077311 165.62270685 54.9375 162.421875 C67.60396362 146.83011539 67.6479464 125.79184617 65.81152344 106.52490234 C63.23216603 85.25659661 54.50593347 63.89947072 40.04296875 47.953125 C39.35847656 47.13972656 38.67398438 46.32632813 37.96875 45.48828125 C23.19605898 28.27557664 4.52977967 17.55554129 -16.95703125 10.953125 C-18.69726562 10.41171875 -18.69726562 10.41171875 -20.47265625 9.859375 C-38.98334291 5.21017928 -60.81649835 6.13513644 -78.95703125 11.953125 Z M27.04296875 13.953125 C30.12374304 17.23928425 33.36994611 20.04811946 36.91796875 22.828125 C62.71048324 43.3327936 77.06261486 74.71561741 81.04296875 106.953125 C81.1214731 109.59745537 81.16051629 112.21279911 81.140625 114.85546875 C81.13921005 115.5780336 81.1377951 116.30059845 81.13633728 117.0450592 C81.130791 119.32695865 81.11824895 121.60875579 81.10546875 123.890625 C81.10044679 125.44856628 81.09588511 127.00650912 81.09179688 128.56445312 C81.08083925 132.36071581 81.06361247 136.15690313 81.04296875 139.953125 C81.99123535 140.00645996 82.93950195 140.05979492 83.91650391 140.11474609 C85.16737793 140.19289551 86.41825195 140.27104492 87.70703125 140.3515625 C88.94404785 140.42552246 90.18106445 140.49948242 91.45556641 140.57568359 C100.14457675 141.48988054 107.3754096 145.27799978 113.04296875 151.953125 C117.13028003 158.64330118 119.19130035 164.33811095 119.23046875 172.203125 C119.24464844 173.48703125 119.25882813 174.7709375 119.2734375 176.09375 C119.03411345 180.10141376 118.28488021 183.163577 117.04296875 186.953125 C118.08453125 187.35402344 119.12609375 187.75492188 120.19921875 188.16796875 C149.49703748 199.68508987 176.39031195 217.56442086 191.1484375 246.08984375 C194.91427341 255.08895397 194.47326405 267.86953936 191.48046875 277.015625 C187.08248037 287.11241522 179.14989708 295.53327289 169.12890625 300.140625 C155.70422385 305.36971477 141.0990204 303.42769188 127.99316406 298.12353516 C105.89205259 288.34498584 85.29777529 272.69934853 70.04296875 253.953125 C68.61404297 254.69369141 68.61404297 254.69369141 67.15625 255.44921875 C65.88948704 256.09667537 64.62255074 256.74379294 63.35546875 257.390625 C62.72962891 257.71611328 62.10378906 258.04160156 61.45898438 258.37695312 C53.29447966 262.52332463 45.17127812 262.94693662 36.33984375 260.76953125 C29.30189151 258.26794618 23.02269575 253.26777853 19.04296875 246.953125 C17.17852957 243.02201912 15.55632611 239.03115434 14.04296875 234.953125 C12.65036203 237.62974067 11.51208114 240.28104165 10.51953125 243.12890625 C2.85923732 264.52657607 -8.15193106 283.72265056 -20.1953125 302.90234375 C-31.4792558 320.94820063 -42.57405642 339.85516677 -37.80078125 361.85546875 C-36.03367326 369.31298871 -33.19376647 376.12888654 -30.14453125 383.140625 C-29.0592743 385.68918599 -27.98485323 388.24220585 -26.9140625 390.796875 C-26.65379272 391.41700974 -26.39352295 392.03714447 -26.12536621 392.67607117 C-19.18386476 409.32859998 -11.67865507 428.84156555 -17.51953125 446.890625 C-19.40809548 451.44899406 -22.01309395 454.80422049 -25.46875 458.296875 C-27.19194319 459.99308065 -27.19194319 459.99308065 -27.95703125 462.953125 C-26.33176576 463.88575398 -24.68024168 464.77268169 -23.01953125 465.640625 C-22.10300781 466.13949219 -21.18648437 466.63835937 -20.2421875 467.15234375 C-15.46592884 468.31659229 -12.42572884 466.70358422 -7.95703125 464.953125 C9.14378226 459.16846562 26.21226546 454.78507804 44.04296875 451.953125 C44.83558105 451.82180176 45.62819336 451.69047852 46.44482422 451.55517578 C86.54276226 445.1749415 135.76691 449.22805291 172.73046875 466.515625 C177.06835578 468.33261118 179.29523781 467.56631008 183.57885742 465.9934082 C187.83079963 464.19834967 191.83748076 462.0292473 195.85546875 459.765625 C196.73203125 459.27658691 197.60859375 458.78754883 198.51171875 458.28369141 C205.2572349 454.48124295 211.74749205 450.47062845 218.04296875 445.953125 C218.99945313 445.26992188 219.9559375 444.58671875 220.94140625 443.8828125 C231.62229386 436.06137511 241.89498651 427.53672544 251.04296875 417.953125 C250.49008179 417.32349854 250.49008179 417.32349854 249.92602539 416.68115234 C229.90577574 393.63987917 229.90577574 393.63987917 228.54296875 383.078125 C229.04296875 379.953125 229.04296875 379.953125 230.04296875 378.015625 C232.63215786 376.64011829 234.99745636 376.1100843 237.9296875 376.22265625 C242.57069796 377.82685026 244.6442548 382.9497919 247.04296875 386.953125 C251.57132052 393.76633007 256.47082663 399.96126309 262.04296875 405.953125 C293.92736482 375.08272033 312.12693753 327.88486468 319.04296875 284.953125 C319.21957031 283.90431152 319.39617187 282.85549805 319.578125 281.77490234 C321.2610391 270.7473072 321.44259154 259.83952437 321.41796875 248.703125 C321.41709259 247.73368958 321.41621643 246.76425415 321.41531372 245.76544189 C321.30333884 208.10701019 312.96860767 171.31013159 295.11572266 137.95849609 C294.37840009 136.58016938 293.64934347 135.19739892 292.92724609 133.81103516 C285.22418518 119.03406727 276.02488062 105.49683572 265.04296875 92.953125 C250.30900549 98.27761648 236.94451005 105.78271698 225.04296875 115.953125 C224.29660156 116.58605469 223.55023438 117.21898438 222.78125 117.87109375 C211.56015482 128.21037398 203.79031653 142.95244426 202.83984375 158.21484375 C202.67514752 170.25139315 204.57314551 181.44687377 212.65234375 190.8203125 C223.11538569 200.88092975 237.78129666 204.72975562 251.35546875 208.578125 C270.78680191 214.11240304 270.78680191 214.11240304 278.04296875 218.953125 C278.97109375 219.55125 279.89921875 220.149375 280.85546875 220.765625 C285.89649874 225.80665499 288.18302735 232.48853696 288.29296875 239.515625 C288.15522576 249.90895935 285.38351376 257.49354412 278.04296875 264.953125 C271.19667569 271.09349913 263.54434238 275.40794869 255.54296875 279.828125 C243.90068604 286.30989438 232.28564872 293.5478498 228.04296875 306.953125 C224.46797433 319.66615393 226.55194598 333.28888365 229.63110352 345.93115234 C230.49287259 350.16184083 230.40022522 353.88135558 229.04296875 357.953125 C224.36519486 358.87033557 221.20883564 359.47028561 217.04296875 356.953125 C209.59884547 339.92834759 208.52157306 314.95092195 214.73046875 297.453125 C217.06860016 292.35253464 220.36305506 288.15422818 224.04296875 283.953125 C224.51992188 283.37046875 224.996875 282.7878125 225.48828125 282.1875 C232.34981899 274.49970379 242.33710524 269.69524073 251.13671875 264.55859375 C265.07700489 256.95670181 265.07700489 256.95670181 273.04296875 243.953125 C273.41383162 239.57694314 273.32793815 236.69839203 271.04296875 232.953125 C265.31243581 227.83202526 257.6869164 226.02484189 250.48046875 223.953125 C248.15208245 223.25738428 245.82395561 222.56077467 243.49609375 221.86328125 C241.82450195 221.36852295 241.82450195 221.36852295 240.11914062 220.86376953 C222.058917 215.51737 203.896648 209.0827876 194.2890625 191.63671875 C186.17709892 174.1667533 185.52084502 154.06629089 192.04296875 135.953125 C195.89917897 126.66437845 201.30989165 118.41805831 208.04296875 110.953125 C208.63335937 110.28152344 209.22375 109.60992187 209.83203125 108.91796875 C221.36824438 96.57176619 237.51938939 87.34283057 253.04296875 80.953125 C220.52809669 42.09388766 168.22334317 18.04663864 119.04296875 9.953125 C118.36782227 9.84129883 117.69267578 9.72947266 116.99707031 9.61425781 C90.07507062 5.33213343 52.50869971 2.85676293 27.04296875 13.953125 Z M70.04296875 166.953125 C67.78807532 170.01155397 65.63190585 173.13384422 63.48046875 176.265625 C58.85536872 182.93750712 54.18770462 189.57130256 49.41796875 196.140625 C45.0215101 202.20874862 40.63699738 208.28481514 36.29296875 214.390625 C35.52218994 215.46509888 35.52218994 215.46509888 34.73583984 216.5612793 C34.26484863 217.22554932 33.79385742 217.88981934 33.30859375 218.57421875 C32.68645996 219.44711548 32.68645996 219.44711548 32.05175781 220.33764648 C29.27342115 224.78688504 29.47559892 229.9019575 30.04296875 234.953125 C32.6702594 240.20770631 36.27068829 243.3359614 41.29296875 246.265625 C46.96865729 247.68454713 51.39355043 246.92292188 56.41796875 243.96875 C60.84277945 240.64033679 63.63602641 236.3362759 66.66796875 231.765625 C67.8958368 229.96265659 69.12503202 228.16059139 70.35546875 226.359375 C70.97035156 225.45316406 71.58523437 224.54695313 72.21875 223.61328125 C74.96313399 219.61129946 77.81064006 215.68737239 80.66796875 211.765625 C85.0178412 205.77085953 89.3329646 199.75331253 93.60546875 193.703125 C94.09418457 193.0119458 94.58290039 192.3207666 95.08642578 191.60864258 C96.4118319 189.7279362 97.73013016 187.84262136 99.04296875 185.953125 C99.43597168 185.38916016 99.82897461 184.82519531 100.23388672 184.24414062 C103.92625003 178.84748198 104.81375116 174.3870171 104.04296875 167.953125 C102.30743102 163.11437036 99.2966151 159.78888923 95.04296875 156.953125 C83.56093043 153.12577889 76.98808548 158.30520822 70.04296875 166.953125 Z M107.04296875 200.953125 C105.49933604 202.41630185 105.49933604 202.41630185 104.265625 204.4765625 C103.75797607 205.24218506 103.25032715 206.00780762 102.72729492 206.79663086 C101.92449097 208.04972046 101.92449097 208.04972046 101.10546875 209.328125 C99.95962172 211.06811494 98.81110844 212.8063515 97.66015625 214.54296875 C97.06944336 215.43741699 96.47873047 216.33186523 95.87011719 217.25341797 C92.42283935 222.34695062 88.72294838 227.26426434 85.00610352 232.16357422 C84.48588623 232.86627441 83.96566895 233.56897461 83.4296875 234.29296875 C82.96780029 234.90519287 82.50591309 235.51741699 82.0300293 236.14819336 C80.72309671 238.19517419 80.72309671 238.19517419 81.04296875 241.953125 C93.96004421 262.24661823 119.45438231 280.66677211 142.54296875 286.953125 C151.41840458 288.79768251 159.4028968 288.60497015 167.21484375 283.546875 C173.33908577 278.66590016 177.32958613 272.7889753 178.484375 264.9609375 C178.99082875 252.11988447 172.29558975 243.33756702 164.2734375 233.86328125 C150.48948075 219.17841229 130.20782774 206.94366542 111.04296875 200.953125 C109.72296875 200.953125 108.40296875 200.953125 107.04296875 200.953125 Z M-142.95703125 334.953125 C-139.42804461 347.30457825 -132.79755871 358.55925528 -126.64453125 369.765625 C-126.22421631 370.53640381 -125.80390137 371.30718262 -125.37084961 372.10131836 C-124.7696228 373.18231812 -124.7696228 373.18231812 -124.15625 374.28515625 C-123.80393311 374.92171143 -123.45161621 375.5582666 -123.08862305 376.21411133 C-121.89238445 378.05247326 -120.5572966 379.46067183 -118.95703125 380.953125 C-120.05158267 364.89970418 -131.86432875 347.1055627 -141.95703125 334.953125 C-142.28703125 334.953125 -142.61703125 334.953125 -142.95703125 334.953125 Z M7.04296875 475.953125 C9.32439557 478.23455182 10.55963172 478.5415544 13.63671875 479.35546875 C15.04352905 479.72913574 15.04352905 479.72913574 16.47875977 480.11035156 C60.09783627 491.21755963 110.07468022 494.02435244 153.04296875 477.953125 C153.70296875 477.293125 154.36296875 476.633125 155.04296875 475.953125 C143.58409974 472.54551139 132.16050597 469.58204684 120.35546875 467.640625 C119.38996094 467.48174805 118.42445313 467.32287109 117.4296875 467.15917969 C105.57253852 465.30139636 93.84020052 464.71293642 81.85546875 464.703125 C81.10897064 464.70245026 80.36247253 464.70177551 79.59335327 464.70108032 C54.85083895 464.73636318 30.67399964 468.54894735 7.04296875 475.953125 Z " fill="#000000" transform="translate(174.95703125,8.046875)"/>
<path d="M0 0 C19.72853815 16.48764592 32.41583438 39.24259391 34.75 65.0625 C36.37920907 90.41983966 29.38122716 114.47876285 12.75 134.0625 C11.93595703 135.07570312 11.93595703 135.07570312 11.10546875 136.109375 C-3.26332618 153.47307098 -26.65210306 164.74311997 -48.9296875 166.93359375 C-75.165227 168.39112372 -100.402483 162.32909223 -120.51416016 144.65917969 C-139.15853717 127.56532717 -151.39745582 104.91658735 -152.5703125 79.37109375 C-152.90857834 67.09155349 -152.11657512 55.75050333 -148.25 44.0625 C-148.03569336 43.40958984 -147.82138672 42.75667969 -147.60058594 42.08398438 C-142.93263654 28.34512896 -135.20923251 17.52058494 -125.25 7.0625 C-124.40115234 6.06669922 -124.40115234 6.06669922 -123.53515625 5.05078125 C-113.81137637 -5.81956678 -99.1089964 -13.06873422 -85.25 -16.9375 C-84.22777344 -17.25332031 -83.20554687 -17.56914063 -82.15234375 -17.89453125 C-53.67016132 -25.47362961 -22.9614837 -17.90574417 0 0 Z M-110.25 15.0625 C-111.47783203 16.15304688 -111.47783203 16.15304688 -112.73046875 17.265625 C-127.3523935 30.98059224 -135.97902387 50.23768425 -136.6550293 70.24121094 C-136.94902865 93.52242311 -129.10119744 112.67042388 -112.94921875 129.453125 C-97.31909349 144.4948822 -76.59116552 151.69859061 -55.1015625 151.3046875 C-37.73727235 150.2128153 -22.66475088 143.98884853 -9.25 133.0625 C-8.61964844 132.59457031 -7.98929688 132.12664062 -7.33984375 131.64453125 C5.94665567 121.32403854 14.82040377 103.35206527 17.75 87.0625 C17.976875 85.94875 18.20375 84.835 18.4375 83.6875 C20.30005144 62.08190326 15.21186378 40.91287539 1.2421875 23.921875 C-11.98576494 8.58147389 -30.36007413 -2.34037241 -50.74951172 -4.16064453 C-72.60465109 -5.45917116 -93.77265982 0.04360613 -110.25 15.0625 Z " fill="#000000" transform="translate(187.25,54.9375)"/>
</svg>
