<?xml version="1.0" encoding="UTF-8"?>
<svg version="1.1" xmlns="http://www.w3.org/2000/svg" width="256" height="256">
<path d="M0 0 C0.9605127 -0.00201416 1.92102539 -0.00402832 2.91064453 -0.00610352 C9.65144517 0.08986913 15.08383107 0.98233849 21.3359375 3.59765625 C27.17395167 5.18911491 33.07368774 3.17794154 38.8125 1.8125 C58.01171924 -2.11504399 79.39331766 -1.04400308 98.1875 4.375 C98.91678711 4.58398926 99.64607422 4.79297852 100.39746094 5.00830078 C132.53153918 14.57969624 160.133909 37.21594451 176.21923828 66.56689453 C181.51963103 76.46470308 185.27168268 86.56948027 188.1875 97.375 C188.50976562 98.53644531 188.83203125 99.69789062 189.1640625 100.89453125 C193.81705246 120.96326833 192.8814571 143.62722235 187.1875 163.375 C186.87401611 164.46893066 186.87401611 164.46893066 186.55419922 165.58496094 C176.98280376 197.71903918 154.34655549 225.321409 124.99560547 241.40673828 C115.09779692 246.70713103 104.99301973 250.45918268 94.1875 253.375 C92.44533203 253.85839844 92.44533203 253.85839844 90.66796875 254.3515625 C70.59923167 259.00455246 47.93527765 258.0689571 28.1875 252.375 C27.45821289 252.16601074 26.72892578 251.95702148 25.97753906 251.74169922 C-6.15653918 242.17030376 -33.758909 219.53405549 -49.84423828 190.18310547 C-55.14463103 180.28529692 -58.89668268 170.18051973 -61.8125 159.375 C-62.29589844 157.63283203 -62.29589844 157.63283203 -62.7890625 155.85546875 C-67.18017792 136.9162186 -66.33193754 116.03398117 -61.58984375 97.28125 C-60.4770288 91.68921509 -61.68554701 87.734384 -63.375 82.4375 C-67.61039266 65.66366768 -65.82831225 48.29685652 -57.625 33.1875 C-53.98149797 27.28627236 -49.69393542 22.28212719 -44.8125 17.375 C-44.22210938 16.74980469 -43.63171875 16.12460937 -43.0234375 15.48046875 C-38.83790832 11.39635107 -34.09855881 8.71600376 -28.9375 6.0625 C-28.28966553 5.72460449 -27.64183105 5.38670898 -26.97436523 5.03857422 C-18.3596031 0.81407882 -9.48984604 -0.01254607 0 0 Z M-42.8125 26.375 C-53.43568351 39.70554824 -58.54573617 54.37021168 -56.8125 71.375 C-54.16929529 87.17676726 -46.96112218 100.86041913 -33.8125 110.375 C-30.62646565 112.1933517 -27.42767919 113.94155511 -24.15625 115.6015625 C-23.3828125 116.18679687 -22.609375 116.77203125 -21.8125 117.375 C-21.46875 120.0859375 -21.46875 120.0859375 -21.8125 122.375 C-25.04569524 123.41529682 -26.4633945 123.52138355 -29.64453125 122.1875 C-38.83041268 116.60132833 -46.02169543 110.6937356 -52.8125 102.375 C-53.8025 102.87 -53.8025 102.87 -54.8125 103.375 C-55.31339077 105.83925891 -55.66861613 108.19436445 -55.9375 110.6875 C-56.0195166 111.43789551 -56.1015332 112.18829102 -56.18603516 112.96142578 C-56.77337975 118.88472911 -57.08670565 124.79916982 -57.1875 130.75 C-57.21344238 131.54446533 -57.23938477 132.33893066 -57.26611328 133.1574707 C-57.30482395 145.66230705 -50.80263246 154.98183325 -43.875 164.8125 C-27.98803891 187.38635487 -27.98803891 187.38635487 -29.1875 200.1875 C-29.20544583 204.23727556 -28.63688544 206.28715078 -26 209.375 C-24.63368225 210.73856308 -23.23421198 212.06929577 -21.8125 213.375 C-20.966875 214.19097656 -20.12125 215.00695312 -19.25 215.84765625 C-10.78268255 224.18138197 -10.78268255 224.18138197 -0.8125 230.375 C2.37623041 229.54052231 3.83991283 228.75734589 6.0625 226.3125 C8.78223459 219.21097079 5.46995459 211.65117737 2.8125 204.9375 C2.17676506 203.26103023 1.54263064 201.58395258 0.91015625 199.90625 C0.60996582 199.11734375 0.30977539 198.3284375 0.00048828 197.515625 C-4.13168251 186.6354828 -5.8550507 176.65500101 -1.33203125 165.53125 C1.36649343 159.92608819 4.42557259 154.52853042 7.50390625 149.125 C10.20238323 144.38275849 12.7723326 139.57851889 15.3125 134.75 C15.70268311 134.00927246 16.09286621 133.26854492 16.49487305 132.50537109 C17.39401292 130.79608681 18.29101736 129.08567944 19.1875 127.375 C15.69764462 126.21171487 14.07290804 126.61255771 10.5 127.3125 C3.11871849 128.62868032 -3.42239661 128.6066839 -10.8125 127.375 C-11.19468767 125.71885343 -11.52645102 124.05042976 -11.8125 122.375 C-10.29196638 120.85446638 -8.91657005 121.23087298 -6.796875 121.19921875 C3.42327779 120.9431712 12.6357304 120.40589998 22.1875 116.375 C23.03054687 116.05660156 23.87359375 115.73820312 24.7421875 115.41015625 C33.5740135 111.21997682 38.40570173 102.36904805 43.70263672 94.53076172 C44.99528605 92.65406103 46.32776143 90.83630926 47.72265625 89.03515625 C48.43292969 88.11605469 49.14320312 87.19695312 49.875 86.25 C50.77798828 85.10144531 50.77798828 85.10144531 51.69921875 83.9296875 C55.21335012 77.89755648 55.55062558 71.37714301 55.5 64.5625 C55.49508545 63.77423828 55.4901709 62.98597656 55.48510742 62.17382812 C55.19028891 47.42987872 49.15959825 35.10860394 39.1875 24.375 C27.60194062 13.28149141 13.08448534 7.79875746 -2.73828125 8.06640625 C-17.95800772 8.95046363 -32.33540663 15.11920375 -42.8125 26.375 Z M45.5625 9.25 C44.84578125 9.32822998 44.1290625 9.40645996 43.390625 9.48706055 C39.35461801 9.95665937 39.35461801 9.95665937 36.1875 12.375 C36.8165625 12.82488281 37.445625 13.27476563 38.09375 13.73828125 C50.70715497 23.21733107 59.4050866 36.75067862 62.1875 52.375 C63.00471087 59.67870787 63.24444211 67.02946738 63.1875 74.375 C63.76757812 74.40078125 64.34765625 74.4265625 64.9453125 74.453125 C71.25575373 74.91130885 75.46154448 76.3009104 79.80859375 81.203125 C81.40316241 83.71468357 81.67050017 85.363158 81.875 88.3125 C81.94074219 89.14652344 82.00648438 89.98054688 82.07421875 90.83984375 C82.18662924 93.35551291 82.21002069 95.85718717 82.1875 98.375 C82.83074219 98.63152344 83.47398437 98.88804688 84.13671875 99.15234375 C97.68052804 104.89059105 111.63381435 113.74333385 118.1875 127.375 C120.1697641 132.49584892 119.66832625 137.90721459 118 143 C115.12432359 148.3547078 112.19225941 152.75720818 106.2578125 154.90234375 C95.41272431 157.37829785 86.00729636 153.83765823 76.75 148.3125 C69.52013233 143.52036869 63.30415346 137.49165346 57.1875 131.375 C56.13369141 132.10396484 56.13369141 132.10396484 55.05859375 132.84765625 C50.27591147 135.39191308 45.47261236 135.0266873 40.1875 134.375 C34.50024478 131.58126059 31.90384488 127.89976925 29.1875 122.375 C28.84460938 123.32375 28.50171875 124.2725 28.1484375 125.25 C24.16198116 135.77519295 18.98690348 145.28563759 13.16357422 154.91015625 C6.76181513 165.52615642 1.6452664 174.58725869 4.1875 187.375 C6.38857364 194.74349485 9.28293529 201.86646877 12.24780273 208.95581055 C14.58320939 214.96816299 15.81744216 222.42470349 13.29296875 228.54296875 C12.30378783 230.18228271 11.24954869 231.78192696 10.1875 233.375 C10.1875 234.365 10.1875 235.355 10.1875 236.375 C13.50186555 238.22620994 14.91777279 238.43617835 18.68359375 237.58203125 C20.00216344 237.1308887 21.31582879 236.66523043 22.625 236.1875 C24.05440113 235.70490476 25.48543262 235.22711444 26.91796875 234.75390625 C27.63388184 234.51687988 28.34979492 234.27985352 29.08740234 234.03564453 C38.23103893 231.15925757 47.63549282 229.78583902 57.1875 229.375 C58.1053125 229.33375 59.023125 229.2925 59.96875 229.25 C74.14806988 228.9383666 87.65455489 231.09159874 101.19921875 235.15625 C101.87283447 235.35565186 102.5464502 235.55505371 103.24047852 235.76049805 C105.10359119 236.34851743 106.93263928 237.04136062 108.7578125 237.73828125 C113.19093712 238.5612873 115.66332495 237.27479562 119.375 235.0625 C120.02355957 234.69511719 120.67211914 234.32773438 121.34033203 233.94921875 C131.17299379 228.24101991 139.86353011 221.08938624 148.1875 213.375 C147.81238281 212.9625 147.43726563 212.55 147.05078125 212.125 C143.30929157 207.90286555 139.51087749 203.56460018 137.1875 198.375 C137.375 195.375 137.375 195.375 138.1875 193.375 C140.39453125 192.97265625 140.39453125 192.97265625 143.1875 193.375 C145.00905092 195.51852719 146.41906225 197.44381082 147.875 199.8125 C150.38377722 204.25269732 150.38377722 204.25269732 154.1875 207.375 C176.19425553 179.11585786 186.86736238 147.72852537 182.71875 111.6953125 C179.64315805 90.12673821 170.51816063 68.8567746 156.1875 52.375 C155.5275 52.045 154.8675 51.715 154.1875 51.375 C151.89746215 52.31565859 149.75688634 53.30676443 147.5625 54.4375 C146.93093994 54.76113525 146.29937988 55.08477051 145.64868164 55.41821289 C137.37598668 59.74829409 131.54230723 63.93092257 127.1875 72.375 C126.775 73.15875 126.3625 73.9425 125.9375 74.75 C123.72583429 82.49082999 123.30175646 90.04747346 127.203125 97.25 C131.61628095 103.41778421 138.26065396 105.06605132 145.1875 107.375 C148.02995507 108.32960562 150.85994548 109.31475022 153.6875 110.3125 C154.35765137 110.52914307 155.02780273 110.74578613 155.71826172 110.96899414 C160.8947329 112.79425779 163.23236059 114.9031129 166.1875 119.375 C167.23146464 123.8805316 166.54267773 128.16739573 165.25 132.5625 C160.45575533 139.10010637 153.29556194 142.99495963 146.41796875 147.046875 C141.86119854 149.76018826 138.6200149 152.08309621 136.68359375 157.203125 C134.83780328 165.2839085 136.28960083 174.2297718 137.1875 182.375 C135.5375 182.705 133.8875 183.035 132.1875 183.375 C129.49385605 177.31430112 128.83597588 171.8668173 128.75 165.3125 C128.71712891 164.17965576 128.71712891 164.17965576 128.68359375 163.02392578 C128.70881828 155.77029646 131.2842682 150.37968916 136 144.9375 C140.10562825 141.02053301 145.01287084 138.31506093 149.94458008 135.57055664 C154.55233284 132.96617464 157.18120344 130.82784786 159.1875 125.9375 C159.44592098 123.20394953 159.44592098 123.20394953 157.33203125 120.93359375 C153.55899289 117.35498033 148.75986172 116.29989337 143.875 114.875 C135.65188624 112.44583989 127.52933749 109.7742872 121.8125 103 C121.12027344 102.21496094 121.12027344 102.21496094 120.4140625 101.4140625 C115.78133123 93.71251561 115.90542013 83.03304111 117.83984375 74.49609375 C122.72718809 61.09260434 133.74700404 52.08255503 146.3515625 46.1875 C147.26035156 45.7853125 147.26035156 45.7853125 148.1875 45.375 C142.10624375 31.36032823 120.68259464 21.79492943 107.1875 16.375 C86.97234561 8.49924452 67.04389208 6.88086451 45.5625 9.25 Z M55.34301758 90.61743164 C54.67822388 91.64211548 54.67822388 91.64211548 54 92.6875 C53.04348056 94.13141159 52.08510677 95.57409626 51.125 97.015625 C50.64160156 97.74330078 50.15820312 98.47097656 49.66015625 99.22070312 C48.24363637 101.29288009 46.76919208 103.29911705 45.25 105.296875 C44.78746826 105.91135498 44.32493652 106.52583496 43.84838867 107.15893555 C42.97319531 108.31334142 42.08592456 109.45872621 41.18481445 110.59301758 C38.18559114 114.59952952 37.59366595 117.43030258 38.1875 122.375 C40.02083333 125.54166667 40.02083333 125.54166667 43.1875 127.375 C48.40531393 127.50459894 48.40531393 127.50459894 52.78369141 125.04248047 C54.32242854 123.20180247 55.66844324 121.30820902 57 119.3125 C57.49918945 118.6016626 57.99837891 117.8908252 58.51269531 117.15844727 C59.55769996 115.66466863 60.5925634 114.16374923 61.61767578 112.65625 C63.16883078 110.40212989 64.77436043 108.19909237 66.40234375 106 C67.41525279 104.60503018 68.42701423 103.20922619 69.4375 101.8125 C69.91550049 101.17111084 70.39350098 100.52972168 70.88598633 99.86889648 C73.8728217 95.62199859 74.90850613 92.72733378 74.1875 87.375 C71.90004622 84.30327635 70.49292313 82.63608463 66.6875 81.875 C61.09927562 82.99264488 58.37724419 86.09085047 55.34301758 90.61743164 Z M76.1875 105.375 C73.58323062 107.99145214 71.53385207 111.07420636 69.375 114.0625 C68.75173828 114.87912109 68.12847656 115.69574219 67.48632812 116.53710938 C66.90689453 117.33310547 66.32746094 118.12910156 65.73046875 118.94921875 C65.19446045 119.67713623 64.65845215 120.40505371 64.10620117 121.1550293 C62.90274634 123.41475056 62.90274634 123.41475056 63.93774414 126.03149414 C69.15695548 135.81840754 81.92063 143.65065939 92.0625 147.5 C96.44601431 148.69772603 99.77687976 148.47765506 104.1875 147.375 C107.73262678 145.14002877 109.59032386 143.2068217 111.1875 139.375 C111.9128512 134.73612606 111.67595317 131.28212731 109.4375 127.125 C108.695 126.2175 107.9525 125.31 107.1875 124.375 C106.31544922 123.19164062 106.31544922 123.19164062 105.42578125 121.984375 C98.96040325 114.4470757 88.50668893 108.60586864 79.1875 105.375 C78.1975 105.375 77.2075 105.375 76.1875 105.375 Z M-46.8125 175.375 C-45.8125 177.375 -45.8125 177.375 -45.8125 177.375 Z M-45.8125 177.375 C-44.39957905 182.2024799 -42.38275846 186.0912359 -39.8125 190.375 C-38.44137384 187.41666788 -38.44137384 187.41666788 -39.9921875 184.89453125 C-40.55164063 184.00121094 -41.11109375 183.10789063 -41.6875 182.1875 C-42.24179687 181.28644531 -42.79609375 180.38539063 -43.3671875 179.45703125 C-43.84414063 178.76996094 -44.32109375 178.08289063 -44.8125 177.375 C-45.1425 177.375 -45.4725 177.375 -45.8125 177.375 Z M-38.8125 190.375 C-37.8125 192.375 -37.8125 192.375 -37.8125 192.375 Z M27.1875 243.375 C29.87410783 244.02474205 32.56168674 244.66988418 35.25 245.3125 C36.00216797 245.49490234 36.75433594 245.67730469 37.52929688 245.86523438 C57.94976503 250.7272506 79.15804192 249.30392582 99.1875 243.375 C91.74657221 235.93407221 72.93822687 236.92800749 63.1875 236.875 C44.03260046 236.43103985 44.03260046 236.43103985 27.1875 243.375 Z " fill="#FFFFFF" transform="translate(64.8125,-0.375)"/>
<path d="M0 0 C9.04366658 7.46102493 14.68837183 17.60090012 16.59375 29.18359375 C17.73568523 45.05836551 14.23699349 56.95031961 3.9375 69.14453125 C-4.70176114 78.47656333 -15.67429973 83.05375957 -28.27270508 83.5859375 C-40.28047907 83.78977099 -49.93561034 80.52997778 -59.40625 73.18359375 C-60.10621094 72.65894531 -60.80617188 72.13429688 -61.52734375 71.59375 C-70.35461519 64.50189676 -74.56391812 55.05537544 -77.09375 44.24609375 C-78.46178537 30.83934717 -75.86713992 18.0298 -67.80859375 6.99609375 C-50.31856421 -14.03975044 -21.35105348 -16.11727251 0 0 Z M-56.21875 6.87109375 C-62.51375219 12.72831401 -68.28049723 22.57062791 -68.83984375 31.19921875 C-68.86346388 32.61048003 -68.8641178 34.02228178 -68.84375 35.43359375 C-68.83545166 36.17867187 -68.82715332 36.92375 -68.81860352 37.69140625 C-68.49612812 48.30440431 -64.75779126 56.51826719 -57.40625 64.18359375 C-49.85792122 70.97411787 -40.73722603 75.08452651 -30.515625 75.22265625 C-23.5057365 74.84520072 -17.67484951 73.31789351 -11.40625 70.18359375 C-10.684375 69.82265625 -9.9625 69.46171875 -9.21875 69.08984375 C-0.82167803 64.38239431 4.47597513 55.93757848 7.31640625 46.87890625 C10.02387514 35.65456503 8.20339428 24.84353677 2.27734375 14.99609375 C-3.88785303 6.12627385 -13.16927905 0.18584111 -23.65625 -2.19140625 C-35.21746854 -3.96391351 -47.01773376 -0.25162277 -56.21875 6.87109375 Z " fill="#FFFFFF" transform="translate(94.40625,27.81640625)"/>
</svg>
