<?xml version="1.0" encoding="UTF-8"?>
<svg version="1.1" xmlns="http://www.w3.org/2000/svg" width="256" height="256">
<path d="M0 0 C0.68958298 -0.00350464 1.37916595 -0.00700928 2.08964539 -0.01062012 C4.37431843 -0.01943923 6.65868306 -0.01358781 8.94335938 -0.00683594 C10.52754781 -0.00818254 12.11173584 -0.01012303 13.69592285 -0.01263428 C17.01818776 -0.01558578 20.34034522 -0.01128711 23.66259766 -0.00195312 C27.92672528 0.00944149 32.19060116 0.00288214 36.45471954 -0.00909805 C39.72660223 -0.01631599 42.99842498 -0.01402904 46.27030945 -0.00884247 C47.84282969 -0.00750578 49.41535532 -0.00915435 50.98786926 -0.01380157 C53.1834663 -0.01886579 55.37865241 -0.01115843 57.57421875 0 C59.45046936 0.00238678 59.45046936 0.00238678 61.36462402 0.00482178 C64.28710938 0.25878906 64.28710938 0.25878906 66.28710938 2.25878906 C66.48242188 4.64160156 66.48242188 4.64160156 66.41210938 7.38378906 C66.3940625 8.29386719 66.37601562 9.20394531 66.35742188 10.14160156 C66.33421875 10.84027344 66.31101562 11.53894531 66.28710938 12.25878906 C67.05417206 12.24990662 67.82123474 12.24102417 68.61154175 12.23187256 C75.87816645 12.15136897 83.14457167 12.0906446 90.41152763 12.05154037 C94.14661728 12.03075982 97.88133517 12.00261984 101.61621094 11.95703125 C105.22780073 11.91322875 108.83903537 11.88958048 112.45087051 11.87928009 C113.82145902 11.87194978 115.19203044 11.85763708 116.56246567 11.83586884 C128.80337828 11.64935363 136.37415671 13.11150255 145.40771484 21.61889648 C147.68618222 23.83862805 149.92142285 26.0987955 152.15429688 28.36425781 C153.36258784 29.57104344 154.57184445 30.77686291 155.78201294 31.98176575 C158.30449939 34.49993924 160.81616656 37.02828817 163.3203125 39.56469727 C166.51592316 42.80010674 169.73550157 46.01034359 172.963377 49.21352673 C175.46066633 51.69657262 177.94559805 54.19169905 180.42697525 56.69063759 C181.60909246 57.87856597 182.79473267 59.06300017 183.98406601 60.24370384 C191.11659345 67.34165818 197.24399073 73.58282971 198.85351562 83.88378906 C198.843611 92.44138904 197.7935683 98.46237031 191.83007812 104.80957031 C186.14178754 109.89751361 180.6757309 111.62183893 173.28710938 112.25878906 C173.14273438 113.20753906 172.99835938 114.15628906 172.84960938 115.13378906 C172.28710938 118.25878906 172.28710938 118.25878906 171.28710938 120.25878906 C172.06948975 120.25355225 172.85187012 120.24831543 173.65795898 120.24291992 C177.18016771 120.222218 180.70236368 120.20915068 184.22460938 120.19628906 C186.0721582 120.1837207 186.0721582 120.1837207 187.95703125 120.17089844 C189.12685547 120.16767578 190.29667969 120.16445312 191.50195312 120.16113281 C193.12798462 120.15327759 193.12798462 120.15327759 194.78686523 120.14526367 C197.28710938 120.25878906 197.28710938 120.25878906 198.28710938 121.25878906 C198.41210938 124.25878906 198.41210938 124.25878906 198.28710938 127.25878906 C196.7486251 128.79727334 195.34439918 128.38417846 193.20004272 128.3846302 C192.3138859 128.38723795 191.42772907 128.3898457 190.51471901 128.39253247 C189.5300131 128.39030175 188.5453072 128.38807102 187.53076172 128.38577271 C186.49339056 128.3873327 185.4560194 128.38889269 184.38721275 128.39049995 C180.88247669 128.39451483 177.37778332 128.39131842 173.87304688 128.38818359 C171.3720904 128.38953742 168.87113412 128.39131724 166.37017822 128.39349365 C160.2652057 128.39759411 154.16025017 128.39697465 148.0552783 128.39408101 C143.09583148 128.39182719 138.1363881 128.39151437 133.17694092 128.39260483 C132.1201646 128.39283468 132.1201646 128.39283468 131.04203928 128.39306917 C129.61104854 128.39338888 128.1800578 128.39371309 126.74906707 128.39404176 C113.31495378 128.39689671 99.88084731 128.3936093 86.44673514 128.3882414 C74.90719502 128.38377334 63.36766495 128.38454927 51.828125 128.38916016 C38.44371436 128.39450566 25.0593097 128.39662202 11.67489815 128.39354789 C10.24902471 128.39322933 8.82315127 128.39291496 7.39727783 128.39260483 C6.69562952 128.39245055 5.99398122 128.39229628 5.27107084 128.39213733 C0.3147253 128.3912721 -4.64161647 128.39273517 -9.59796143 128.39508438 C-16.26268317 128.39817374 -22.92738877 128.39598997 -29.59210968 128.39019012 C-32.04600238 128.38886178 -34.49989668 128.38925789 -36.95378876 128.39145279 C-40.28806226 128.39416138 -43.6222735 128.39078675 -46.95654297 128.38577271 C-48.43360183 128.38911879 -48.43360183 128.38911879 -49.94050026 128.39253247 C-50.82665709 128.38992472 -51.71281391 128.38731697 -52.62582397 128.3846302 C-53.78182885 128.38438667 -53.78182885 128.38438667 -54.96118736 128.38413823 C-56.71289063 128.25878906 -56.71289063 128.25878906 -57.71289062 127.25878906 C-57.83789062 124.25878906 -57.83789062 124.25878906 -57.71289062 121.25878906 C-56.13016462 119.67606305 -54.3325506 119.91143159 -52.15039062 119.69628906 C-51.32410156 119.6125 -50.4978125 119.52871094 -49.64648438 119.44238281 C-49.00839844 119.38179688 -48.3703125 119.32121094 -47.71289062 119.25878906 C-48.20789063 118.39253906 -48.20789063 118.39253906 -48.71289062 117.50878906 C-49.71289062 115.25878906 -49.71289062 115.25878906 -49.71289062 111.25878906 C-50.85757813 110.88753906 -50.85757813 110.88753906 -52.02539062 110.50878906 C-55.15957072 109.05103088 -56.03786193 108.26498158 -57.71289062 105.25878906 C-58.01352146 102.43431542 -58.14341988 99.82988795 -58.1328125 97.00537109 C-58.14128204 96.17561768 -58.14975159 95.34586426 -58.15847778 94.4909668 C-58.18186708 91.74935556 -58.18286941 89.00830501 -58.18164062 86.26660156 C-58.18874163 84.35854874 -58.19644054 82.45049806 -58.20471191 80.54244995 C-58.21816159 76.54272528 -58.21972357 72.543198 -58.21386719 68.54345703 C-58.20797418 63.42304429 -58.2385438 58.30358072 -58.27898407 53.18335152 C-58.30486211 49.2421663 -58.30773832 45.30120949 -58.30409241 41.35995102 C-58.30578392 39.47252901 -58.31542947 37.58509648 -58.33323669 35.69775772 C-58.35542627 33.05486236 -58.3457251 30.4138861 -58.328125 27.77099609 C-58.34138824 26.99468842 -58.35465149 26.21838074 -58.36831665 25.41854858 C-58.30683246 21.43572105 -57.87124273 18.95999953 -55.36193848 15.78927612 C-50.67170928 11.30896283 -45.78186661 12.04316314 -39.65039062 12.00878906 C-38.72677734 11.98816406 -37.80316406 11.96753906 -36.8515625 11.94628906 C-35.52801758 11.93855469 -35.52801758 11.93855469 -34.17773438 11.93066406 C-33.36941162 11.92131836 -32.56108887 11.91197266 -31.72827148 11.90234375 C-31.0631958 12.0199707 -30.39812012 12.13759766 -29.71289062 12.25878906 C-27.71289062 15.25878906 -27.71289062 15.25878906 -28.02539062 17.38378906 C-28.71289062 19.25878906 -28.71289062 19.25878906 -29.71289062 20.25878906 C-32.52919287 20.47023198 -35.33006861 20.63507063 -38.15039062 20.75878906 C-43.59793205 20.76816567 -43.59793205 20.76816567 -48.71289062 22.25878906 C-49.04289062 39.41878906 -49.37289062 56.57878906 -49.71289062 74.25878906 C27.17710938 73.92878906 104.06710938 73.59878906 183.28710938 73.25878906 C180.47957967 70.45125936 178.66728772 71.00473019 174.74023438 70.98535156 C173.40689285 70.96504908 172.07355959 70.94419805 170.74023438 70.92285156 C168.64250742 70.90032695 166.54510762 70.88381149 164.44726562 70.87792969 C162.41932198 70.86834583 160.39284553 70.83448911 158.36523438 70.79785156 C157.15254883 70.78963379 155.93986328 70.78141602 154.69042969 70.77294922 C149.26422421 69.95317958 145.63994601 66.71981082 141.59570312 63.20019531 C140.6434082 62.37358398 140.6434082 62.37358398 139.671875 61.53027344 C139.02927734 60.96630859 138.38667969 60.40234375 137.72460938 59.82128906 C137.07814453 59.26119141 136.43167969 58.70109375 135.765625 58.12402344 C124.5394027 48.33676757 124.5394027 48.33676757 123.97460938 41.44628906 C124.03088586 37.08084177 125.42297018 34.60028479 128.28710938 31.25878906 C131.36341775 29.1053732 134.60643403 28.76069934 138.28710938 28.25878906 C137.44148437 27.47503906 136.59585938 26.69128906 135.72460938 25.88378906 C135.24894531 25.44292969 134.77328125 25.00207031 134.28320312 24.54785156 C127.39028515 20.09645639 119.05652709 20.95169298 111.18188477 20.93994141 C109.75229328 20.93063328 108.32270719 20.9204633 106.89312744 20.90950012 C103.02797415 20.88228569 99.16285713 20.86707621 95.29763341 20.85407209 C91.25237082 20.83840396 87.20718189 20.81162554 83.16197205 20.78604126 C75.50884242 20.73931853 67.85569884 20.702543 60.20249981 20.66936839 C51.48661732 20.63110095 42.77080893 20.58170293 34.05498898 20.53138423 C16.13241673 20.42816117 -1.79020078 20.33886956 -19.71289062 20.25878906 C-20.37289062 18.60878906 -21.03289063 16.95878906 -21.71289062 15.25878906 C-19.9384409 13.0127248 -19.12936577 12.30797904 -16.23242188 11.96582031 C-15.33910156 12.000625 -14.44578125 12.03542969 -13.52539062 12.07128906 C-12.62433594 12.09835938 -11.72328125 12.12542969 -10.79492188 12.15332031 C-9.76431641 12.20552734 -9.76431641 12.20552734 -8.71289062 12.25878906 C-8.73609375 11.56011719 -8.75929687 10.86144531 -8.78320312 10.14160156 C-8.80125 9.23152344 -8.81929687 8.32144531 -8.83789062 7.38378906 C-8.86109375 6.47886719 -8.88429687 5.57394531 -8.90820312 4.64160156 C-8.46097551 -0.81457537 -4.47038837 0.00568678 0 0 Z M0.28710938 8.25878906 C0.28710938 9.57878906 0.28710938 10.89878906 0.28710938 12.25878906 C19.09710938 12.25878906 37.90710938 12.25878906 57.28710938 12.25878906 C57.28710938 10.93878906 57.28710938 9.61878906 57.28710938 8.25878906 C38.47710937 8.25878906 19.66710937 8.25878906 0.28710938 8.25878906 Z M132.28710938 40.25878906 C132.28072178 43.3439975 133.37899246 44.35519364 135.50976562 46.59082031 C136.44691406 47.409375 137.3840625 48.22792969 138.34960938 49.07128906 C139.34089844 49.94269531 140.3321875 50.81410156 141.35351562 51.71191406 C142.32160156 52.55238281 143.2896875 53.39285156 144.28710938 54.25878906 C145.07988281 54.97550781 145.87265625 55.69222656 146.68945312 56.43066406 C150.85056726 60.18109096 153.49307238 62.40009761 159.29882812 62.35644531 C160.05615234 62.35322266 160.81347656 62.35 161.59375 62.34667969 C162.37943359 62.33830078 163.16511719 62.32992187 163.97460938 62.32128906 C164.77189453 62.31677734 165.56917969 62.31226562 166.390625 62.30761719 C168.35615194 62.29584757 170.32164023 62.27791255 172.28710938 62.25878906 C160.37720866 46.1334949 160.37720866 46.1334949 144.32617188 35.98535156 C139.58194034 35.93204559 135.09795639 35.95688342 132.28710938 40.25878906 Z M-49.71289062 83.25878906 C-49.71289062 85.89878906 -49.71289062 88.53878906 -49.71289062 91.25878906 C-19.28272677 91.281579 11.14743621 91.29928701 41.57760664 91.30985439 C45.16640249 91.31110517 48.75519832 91.31239948 52.34399414 91.3137207 C53.41573607 91.31411417 53.41573607 91.31411417 54.50912935 91.31451558 C66.09323856 91.31887237 77.67734282 91.32675996 89.26144909 91.33594186 C101.13901395 91.34527816 113.01657622 91.35084462 124.89414459 91.35287756 C131.56928558 91.35412912 138.24441671 91.35727382 144.91955376 91.36451912 C151.19439228 91.37127515 157.46921489 91.37340688 163.7440567 91.37189674 C166.05443216 91.37217326 168.36480811 91.37418084 170.67518044 91.37799454 C173.81463712 91.38292527 176.95403268 91.38178965 180.0934906 91.37904358 C181.0205144 91.38195642 181.9475382 91.38486926 182.90265363 91.38787037 C186.91372503 91.78394113 186.91372503 91.78394113 190.28710938 90.25878906 C190.28710938 87.94878906 190.28710938 85.63878906 190.28710938 83.25878906 C111.08710938 83.25878906 31.88710937 83.25878906 -49.71289062 83.25878906 Z M-49.71289062 99.25878906 C-49.38289063 100.57878906 -49.05289063 101.89878906 -48.71289062 103.25878906 C-20.02397557 103.32722837 8.66492986 103.38031888 37.35391048 103.41198505 C40.74098603 103.41573717 44.12806141 103.41962013 47.51513672 103.42358398 C48.52659433 103.42476438 48.52659433 103.42476438 49.55848543 103.42596862 C60.47642039 103.43902218 71.39430796 103.46267573 82.31221481 103.49024745 C93.51518231 103.51830307 104.71812615 103.5347411 115.92113054 103.54105455 C122.21361782 103.54496916 128.5059976 103.55418438 134.79845047 103.57597923 C140.7195861 103.59632206 146.64056981 103.60262727 152.56173706 103.59811211 C154.73617757 103.59893829 156.9106231 103.60491695 159.08503342 103.61640549 C162.0521256 103.63131488 165.01864301 103.62774812 167.98574829 103.61955261 C168.84762556 103.62829114 169.70950282 103.63702966 170.59749758 103.64603299 C175.58887631 103.6087276 178.91080133 102.93207638 183.28710938 100.25878906 C183.28710938 99.92878906 183.28710938 99.59878906 183.28710938 99.25878906 C106.39710938 99.25878906 29.50710937 99.25878906 -49.71289062 99.25878906 Z M-40.71289062 112.25878906 C-39.21600819 117.12052614 -39.21600819 117.12052614 -36.52539062 119.13378906 C-32.73419205 120.65026849 -30.62418692 120.37630229 -26.71289062 119.25878906 C-23.75238189 116.96679503 -23.75238189 116.96679503 -21.71289062 114.25878906 C-21.71289062 113.59878906 -21.71289062 112.93878906 -21.71289062 112.25878906 C-27.98289062 112.25878906 -34.25289062 112.25878906 -40.71289062 112.25878906 Z M-12.71289062 112.25878906 C-14.19789062 116.21878906 -14.19789062 116.21878906 -15.71289062 120.25878906 C-13.40289062 120.25878906 -11.09289063 120.25878906 -8.71289062 120.25878906 C-8.71289062 117.61878906 -8.71289062 114.97878906 -8.71289062 112.25878906 C-10.03289063 112.25878906 -11.35289063 112.25878906 -12.71289062 112.25878906 Z M0.28710938 112.25878906 C0.28710938 114.89878906 0.28710938 117.53878906 0.28710938 120.25878906 C2.92710938 120.25878906 5.56710938 120.25878906 8.28710938 120.25878906 C8.28710938 117.61878906 8.28710938 114.97878906 8.28710938 112.25878906 C5.64710937 112.25878906 3.00710937 112.25878906 0.28710938 112.25878906 Z M16.28710938 112.25878906 C16.28710938 114.89878906 16.28710938 117.53878906 16.28710938 120.25878906 C18.59710938 120.25878906 20.90710938 120.25878906 23.28710938 120.25878906 C22.29710938 117.61878906 21.30710937 114.97878906 20.28710938 112.25878906 C18.96710938 112.25878906 17.64710937 112.25878906 16.28710938 112.25878906 Z M29.28710938 112.25878906 C31.60124174 117.86423786 31.60124174 117.86423786 33.97460938 119.69628906 C37.57192985 120.57131296 40.81735094 120.46805141 44.28710938 119.25878906 C46.46763928 117.41814991 47.67793537 115.67255007 49.28710938 113.25878906 C49.28710938 112.92878906 49.28710938 112.59878906 49.28710938 112.25878906 C42.68710938 112.25878906 36.08710937 112.25878906 29.28710938 112.25878906 Z M57.28710938 112.25878906 C56.62710938 114.89878906 55.96710938 117.53878906 55.28710938 120.25878906 C59.90710938 120.25878906 64.52710937 120.25878906 69.28710938 120.25878906 C68.29710938 117.61878906 67.30710937 114.97878906 66.28710938 112.25878906 C63.31710938 112.25878906 60.34710938 112.25878906 57.28710938 112.25878906 Z M75.28710938 112.25878906 C76.78399181 117.12052614 76.78399181 117.12052614 79.47460938 119.13378906 C83.26580795 120.65026849 85.37581308 120.37630229 89.28710938 119.25878906 C92.24761811 116.96679503 92.24761811 116.96679503 94.28710938 114.25878906 C94.28710938 113.59878906 94.28710938 112.93878906 94.28710938 112.25878906 C88.01710937 112.25878906 81.74710938 112.25878906 75.28710938 112.25878906 Z M103.28710938 112.25878906 C101.80210937 116.21878906 101.80210937 116.21878906 100.28710938 120.25878906 C102.59710938 120.25878906 104.90710938 120.25878906 107.28710938 120.25878906 C107.28710938 117.61878906 107.28710938 114.97878906 107.28710938 112.25878906 C105.96710938 112.25878906 104.64710938 112.25878906 103.28710938 112.25878906 Z M116.28710938 112.25878906 C116.28710938 114.89878906 116.28710938 117.53878906 116.28710938 120.25878906 C118.92710937 120.25878906 121.56710938 120.25878906 124.28710938 120.25878906 C124.28710938 117.61878906 124.28710938 114.97878906 124.28710938 112.25878906 C121.64710938 112.25878906 119.00710937 112.25878906 116.28710938 112.25878906 Z M132.28710938 112.25878906 C132.28710938 114.89878906 132.28710938 117.53878906 132.28710938 120.25878906 C134.59710938 120.25878906 136.90710938 120.25878906 139.28710938 120.25878906 C138.29710937 117.61878906 137.30710938 114.97878906 136.28710938 112.25878906 C134.96710938 112.25878906 133.64710938 112.25878906 132.28710938 112.25878906 Z M145.28710938 112.25878906 C147.60124174 117.86423786 147.60124174 117.86423786 149.97460938 119.69628906 C153.57192985 120.57131296 156.81735094 120.46805141 160.28710938 119.25878906 C162.46763928 117.41814991 163.67793537 115.67255007 165.28710938 113.25878906 C165.28710938 112.92878906 165.28710938 112.59878906 165.28710938 112.25878906 C158.68710938 112.25878906 152.08710938 112.25878906 145.28710938 112.25878906 Z " fill="#FFFFFF" transform="translate(57.712890625,63.7412109375)"/>
<path d="M0 0 C0.91442368 -0.00637985 1.82884735 -0.0127597 2.77098083 -0.01933289 C3.76573929 -0.02044571 4.76049774 -0.02155853 5.78540039 -0.02270508 C6.80026016 -0.02603348 7.81511993 -0.02936188 8.86073303 -0.03279114 C11.01196844 -0.03786483 13.16321174 -0.04019933 15.31445312 -0.04003906 C18.615447 -0.04222467 21.91610639 -0.0603734 25.21704102 -0.0793457 C27.30232632 -0.08227964 29.38761323 -0.08426443 31.47290039 -0.08520508 C32.46563461 -0.09239059 33.45836884 -0.09957611 34.48118591 -0.10697937 C35.39876175 -0.10390274 36.31633759 -0.10082611 37.26171875 -0.09765625 C38.07144638 -0.09908127 38.88117401 -0.10050629 39.71543884 -0.10197449 C41.69555664 0.14526367 41.69555664 0.14526367 43.69555664 2.14526367 C43.32055664 4.77026367 43.32055664 4.77026367 42.69555664 7.14526367 C41.70555664 7.47526367 40.71555664 7.80526367 39.69555664 8.14526367 C39.71126709 9.17466064 39.71126709 9.17466064 39.72729492 10.22485352 C39.76877538 13.32328656 39.79485733 16.42166128 39.82055664 19.52026367 C39.83731445 20.60049805 39.85407227 21.68073242 39.87133789 22.79370117 C39.88100586 24.34057617 39.88100586 24.34057617 39.89086914 25.91870117 C39.90657959 27.34835205 39.90657959 27.34835205 39.92260742 28.80688477 C39.69555664 31.14526367 39.69555664 31.14526367 37.69555664 33.14526367 C34.85015522 33.34516595 32.1041788 33.42503343 29.25805664 33.41088867 C28.42218018 33.41280212 27.58630371 33.41471558 26.72509766 33.41668701 C24.95645853 33.41804903 23.18780941 33.41435143 21.41918945 33.40600586 C18.70639671 33.39530643 15.9942662 33.40590043 13.28149414 33.41870117 C11.56534684 33.41737958 9.84919995 33.41481719 8.13305664 33.41088867 C7.31844971 33.41493713 6.50384277 33.4189856 5.66455078 33.42315674 C-0.07452408 33.37518295 -0.07452408 33.37518295 -2.30444336 31.14526367 C-2.53149414 28.80688477 -2.53149414 28.80688477 -2.49975586 25.91870117 C-2.49331055 24.88745117 -2.48686523 23.85620117 -2.48022461 22.79370117 C-2.4634668 21.7134668 -2.44670898 20.63323242 -2.42944336 19.52026367 C-2.42041992 18.43229492 -2.41139648 17.34432617 -2.40209961 16.22338867 C-2.37847745 13.53046216 -2.34553892 10.83797112 -2.30444336 8.14526367 C-3.62444336 7.48526367 -4.94444336 6.82526367 -6.30444336 6.14526367 C-5.20585026 0.02453068 -5.20585026 0.02453068 0 0 Z M6.69555664 8.14526367 C6.69555664 13.75526367 6.69555664 19.36526367 6.69555664 25.14526367 C14.61555664 25.14526367 22.53555664 25.14526367 30.69555664 25.14526367 C30.69555664 19.53526367 30.69555664 13.92526367 30.69555664 8.14526367 C22.77555664 8.14526367 14.85555664 8.14526367 6.69555664 8.14526367 Z " fill="#FFFFFF" transform="translate(22.304443359375,96.854736328125)"/>
<path d="M0 0 C0.91442368 -0.00637985 1.82884735 -0.0127597 2.77098083 -0.01933289 C3.76573929 -0.02044571 4.76049774 -0.02155853 5.78540039 -0.02270508 C6.80026016 -0.02603348 7.81511993 -0.02936188 8.86073303 -0.03279114 C11.01196844 -0.03786483 13.16321174 -0.04019933 15.31445312 -0.04003906 C18.615447 -0.04222467 21.91610639 -0.0603734 25.21704102 -0.0793457 C27.30232632 -0.08227964 29.38761323 -0.08426443 31.47290039 -0.08520508 C32.46563461 -0.09239059 33.45836884 -0.09957611 34.48118591 -0.10697937 C35.39876175 -0.10390274 36.31633759 -0.10082611 37.26171875 -0.09765625 C38.07144638 -0.09908127 38.88117401 -0.10050629 39.71543884 -0.10197449 C41.69555664 0.14526367 41.69555664 0.14526367 43.69555664 2.14526367 C43.32055664 4.77026367 43.32055664 4.77026367 42.69555664 7.14526367 C41.70555664 7.47526367 40.71555664 7.80526367 39.69555664 8.14526367 C39.71126709 9.17466064 39.71126709 9.17466064 39.72729492 10.22485352 C39.76877538 13.32328656 39.79485733 16.42166128 39.82055664 19.52026367 C39.83731445 20.60049805 39.85407227 21.68073242 39.87133789 22.79370117 C39.88100586 24.34057617 39.88100586 24.34057617 39.89086914 25.91870117 C39.90657959 27.34835205 39.90657959 27.34835205 39.92260742 28.80688477 C39.69555664 31.14526367 39.69555664 31.14526367 37.69555664 33.14526367 C34.85015522 33.34516595 32.1041788 33.42503343 29.25805664 33.41088867 C28.42218018 33.41280212 27.58630371 33.41471558 26.72509766 33.41668701 C24.95645853 33.41804903 23.18780941 33.41435143 21.41918945 33.40600586 C18.70639671 33.39530643 15.9942662 33.40590043 13.28149414 33.41870117 C11.56534684 33.41737958 9.84919995 33.41481719 8.13305664 33.41088867 C7.31844971 33.41493713 6.50384277 33.4189856 5.66455078 33.42315674 C-0.07452408 33.37518295 -0.07452408 33.37518295 -2.30444336 31.14526367 C-2.53149414 28.80688477 -2.53149414 28.80688477 -2.49975586 25.91870117 C-2.49331055 24.88745117 -2.48686523 23.85620117 -2.48022461 22.79370117 C-2.4634668 21.7134668 -2.44670898 20.63323242 -2.42944336 19.52026367 C-2.42041992 18.43229492 -2.41139648 17.34432617 -2.40209961 16.22338867 C-2.37847745 13.53046216 -2.34553892 10.83797112 -2.30444336 8.14526367 C-3.62444336 7.48526367 -4.94444336 6.82526367 -6.30444336 6.14526367 C-5.20585026 0.02453068 -5.20585026 0.02453068 0 0 Z M5.69555664 8.14526367 C5.69555664 13.75526367 5.69555664 19.36526367 5.69555664 25.14526367 C13.94555664 25.14526367 22.19555664 25.14526367 30.69555664 25.14526367 C30.69555664 19.53526367 30.69555664 13.92526367 30.69555664 8.14526367 C22.44555664 8.14526367 14.19555664 8.14526367 5.69555664 8.14526367 Z " fill="#FFFFFF" transform="translate(76.304443359375,96.854736328125)"/>
<path d="M0 0 C1.22244667 0.00333092 1.22244667 0.00333092 2.46958923 0.00672913 C3.85090782 0.00684242 3.85090782 0.00684242 5.26013184 0.00695801 C6.2611644 0.01211929 7.26219696 0.01728058 8.29356384 0.02259827 C9.31316696 0.02401321 10.33277008 0.02542816 11.38327026 0.02688599 C14.65417867 0.03250355 17.92501972 0.04505902 21.19590759 0.05775452 C23.40749515 0.06276725 25.61908377 0.06733055 27.83067322 0.07142639 C33.26494116 0.08247868 38.69916957 0.09923389 44.13340759 0.12025452 C45.25840759 2.43275452 45.25840759 2.43275452 46.13340759 5.12025452 C45.47340759 6.11025452 44.81340759 7.10025452 44.13340759 8.12025452 C43.14340759 8.12025452 42.15340759 8.12025452 41.13340759 8.12025452 C41.14911804 9.14965149 41.14911804 9.14965149 41.16514587 10.19984436 C41.20662634 13.29827741 41.23270828 16.39665212 41.25840759 19.49525452 C41.27516541 20.57548889 41.29192322 21.65572327 41.30918884 22.76869202 C41.31885681 24.31556702 41.31885681 24.31556702 41.32872009 25.89369202 C41.34443054 27.3233429 41.34443054 27.3233429 41.36045837 28.78187561 C41.13340759 31.12025452 41.13340759 31.12025452 39.13340759 33.12025452 C36.36005332 33.32007477 33.68871116 33.40004652 30.91465759 33.38587952 C29.69413696 33.38874969 29.69413696 33.38874969 28.44895935 33.39167786 C26.72739859 33.39303979 25.00582757 33.38934279 23.2842865 33.3809967 C20.6439159 33.3702971 18.0042257 33.38089152 15.36387634 33.39369202 C13.69330192 33.39237042 12.02272792 33.38980803 10.35215759 33.38587952 C9.16305786 33.39195221 9.16305786 33.39195221 7.94993591 33.39814758 C2.36332787 33.35017479 2.36332787 33.35017479 0.13340759 31.12025452 C-0.09364319 28.78187561 -0.09364319 28.78187561 -0.06190491 25.89369202 C-0.05545959 24.86244202 -0.04901428 23.83119202 -0.04237366 22.76869202 C-0.02561584 21.68845764 -0.00885803 20.60822327 0.00840759 19.49525452 C0.01743103 18.40728577 0.02645447 17.31931702 0.03575134 16.19837952 C0.05937351 13.505453 0.09231203 10.81296196 0.13340759 8.12025452 C-1.18659241 7.46025452 -2.50659241 6.80025452 -3.86659241 6.12025452 C-2.8004681 0.18041911 -2.8004681 0.18041911 0 0 Z M8.13340759 8.12025452 C8.13340759 13.73025452 8.13340759 19.34025452 8.13340759 25.12025452 C16.38340759 25.12025452 24.63340759 25.12025452 33.13340759 25.12025452 C33.13340759 19.51025452 33.13340759 13.90025452 33.13340759 8.12025452 C24.88340759 8.12025452 16.63340759 8.12025452 8.13340759 8.12025452 Z " fill="#FFFFFF" transform="translate(127.86659240722656,96.87974548339844)"/>
</svg>
