<?xml version="1.0" encoding="UTF-8"?>
<svg version="1.1" xmlns="http://www.w3.org/2000/svg" width="512" height="512">
<path d="M0 0 C1.36369761 -0.00514088 2.72738858 -0.01242344 4.09106445 -0.02168274 C7.78745082 -0.04018247 11.48311504 -0.0272687 15.17947125 -0.00759244 C19.04933833 0.00880425 22.91916004 -0.00002009 26.78904724 -0.00511169 C33.28640265 -0.009631 39.78347001 0.00622815 46.28076172 0.03417969 C53.7921035 0.06624456 61.30292619 0.06621026 68.81430489 0.04896492 C76.04225902 0.0331018 83.27002287 0.03983105 90.49796867 0.05690193 C93.57328292 0.06377373 96.64844469 0.06273879 99.72375679 0.05535698 C103.34450827 0.04769605 106.96466882 0.05981292 110.58531952 0.08720589 C112.54779715 0.09737758 114.51034571 0.0879057 116.4728241 0.07788086 C117.64066437 0.09060532 118.80850464 0.10332977 120.01173401 0.11643982 C121.53401281 0.1206502 121.53401281 0.1206502 123.08704472 0.12494564 C126.51226284 0.77940975 127.69141023 1.83473763 129.73608398 4.63110352 C130.19018555 7.01293945 130.19018555 7.01293945 130.12670898 9.61547852 C130.11381836 10.55004883 130.10092773 11.48461914 130.08764648 12.44750977 C130.03737305 13.89963867 130.03737305 13.89963867 129.98608398 15.38110352 C129.96803711 16.3646582 129.94999023 17.34821289 129.93139648 18.36157227 C129.88432524 20.78574135 129.8185914 23.20792411 129.73608398 25.63110352 C130.36739542 25.62741634 130.99870686 25.62372917 131.64914894 25.61993027 C147.06761245 25.5312823 162.48598632 25.46525041 177.90464211 25.42385483 C185.36124496 25.4033 192.81767686 25.37531641 200.27416992 25.3293457 C206.77935644 25.28925938 213.28441905 25.26361937 219.78972566 25.25474954 C223.22876428 25.24957128 226.66744867 25.23755211 230.10637283 25.20818329 C258.08629081 24.99569541 272.39662991 29.52023054 292.49809265 49.25267029 C294.16150646 50.90425517 295.82234567 52.55843605 297.48095703 54.21484375 C298.39776245 55.12668427 299.31456787 56.03852478 300.25915527 56.97799683 C302.74283161 59.44872394 305.22331831 61.92262727 307.70276618 64.39759707 C309.25793125 65.94980653 310.81367118 67.50143763 312.36957741 69.05290413 C317.25574654 73.92545267 322.13994956 78.79995915 327.0212552 83.67738003 C332.6237746 89.27541337 338.2327883 94.86683071 343.84750527 100.45262951 C348.21235602 104.79578896 352.57135213 109.14476894 356.92603713 113.49812084 C359.51643741 116.08747966 362.10914324 118.67441767 364.70801353 121.25527763 C367.60691667 124.13447278 370.49356646 127.02566849 373.37939453 129.91796875 C374.22683731 130.75619675 375.07428009 131.59442474 375.94740295 132.45805359 C388.83331973 145.43429412 395.01788453 157.74407084 394.98046875 175.92163086 C394.81761703 187.71720455 392.09427517 195.36582174 384.73608398 204.63110352 C384.04192383 205.58823242 384.04192383 205.58823242 383.33374023 206.56469727 C374.3668285 218.23467805 359.68365811 222.58078314 345.73608398 224.63110352 C345.47053711 225.53473633 345.20499023 226.43836914 344.93139648 227.36938477 C344.4015918 229.13862305 344.4015918 229.13862305 343.86108398 230.94360352 C343.51303711 232.11536133 343.16499023 233.28711914 342.80639648 234.49438477 C341.73608398 237.63110352 341.73608398 237.63110352 339.73608398 240.63110352 C340.35138474 240.62222107 340.96668549 240.61333862 341.60063171 240.60418701 C348.00823674 240.5156508 354.41566784 240.45534308 360.82373047 240.41137695 C363.21475279 240.39126934 365.60572599 240.36397922 367.99658203 240.3293457 C371.43461229 240.280792 374.87199202 240.25812577 378.31030273 240.24047852 C379.37818527 240.21983337 380.44606781 240.19918823 381.54631042 240.17791748 C388.97485039 240.17567462 388.97485039 240.17567462 392.91088867 242.53051758 C394.87910888 244.79570841 395.39678736 245.67344884 395.29858398 248.63110352 C395.29987305 249.29110352 395.30116211 249.95110352 395.30249023 250.63110352 C394.45093821 253.63796307 393.22039339 254.72640739 390.73608398 256.63110352 C387.82537918 257.02301406 385.29391384 257.16866293 382.38391113 257.13446808 C381.5295538 257.14028184 380.67519648 257.1460956 379.79494953 257.15208554 C376.91241534 257.16676323 374.03072232 257.15276418 371.14819336 257.13903809 C369.06868807 257.14364393 366.98918604 257.1499947 364.90969086 257.15794706 C359.17996955 257.17470699 353.45051336 257.16636377 347.72079086 257.15400219 C341.54756588 257.14498122 335.37438767 257.15890671 329.20117188 257.16992188 C317.80169714 257.18671238 306.40233096 257.18521253 295.00285888 257.174276 C284.4727627 257.16422286 273.94269765 257.16158272 263.41259766 257.16636658 C262.71473434 257.16667212 262.01687102 257.16697766 261.29786032 257.16729246 C258.46516909 257.16853776 255.63247786 257.16981136 252.79978666 257.17113151 C226.21450458 257.18337384 199.62927662 257.17226366 173.04400289 257.15074392 C149.41268843 257.13176079 125.78146019 257.13345927 102.15014648 257.15258789 C75.6142062 257.17399577 49.07831375 257.1825057 22.54236603 257.17013884 C19.71476747 257.16885592 16.88716889 257.16760456 14.05957031 257.16636658 C13.36331816 257.16605027 12.66706602 257.16573396 11.94971532 257.16540806 C1.42495987 257.16085376 -9.09976105 257.16618746 -19.62451172 257.17628479 C-31.58888911 257.18770589 -43.55316465 257.18451041 -55.51753807 257.16316181 C-61.62632404 257.15262223 -67.73493467 257.14857904 -73.84371948 257.16175842 C-79.42970236 257.17362796 -85.01534644 257.1672099 -90.60129833 257.14584821 C-92.62815101 257.14135899 -94.65503198 257.14369994 -96.68186665 257.15335137 C-99.42557253 257.16541991 -102.16810006 257.15313813 -104.91174316 257.13446808 C-106.10715115 257.14851508 -106.10715115 257.14851508 -107.32670879 257.16284585 C-110.89846333 257.11387612 -112.8746569 256.92954474 -115.75052643 254.72464323 C-117.38042369 252.46993323 -117.83179244 251.38383049 -117.82641602 248.63110352 C-117.84833008 247.97110352 -117.87024414 247.31110352 -117.89282227 246.63110352 C-116.85870803 243.34249178 -115.20430795 242.35268014 -112.26391602 240.63110352 C-109.30455818 240.16677742 -106.43740389 240.25095149 -103.45141602 240.38110352 C-102.6631543 240.39915039 -101.87489258 240.41719727 -101.06274414 240.43579102 C-99.12927341 240.48266303 -97.19643317 240.55439942 -95.26391602 240.63110352 C-95.89813477 239.59856445 -96.53235352 238.56602539 -97.18579102 237.50219727 C-99.03895145 234.25916651 -99.96241598 231.41622875 -100.51391602 227.69360352 C-100.66344727 226.73583008 -100.81297852 225.77805664 -100.96704102 224.79125977 C-101.06500977 224.0784082 -101.16297852 223.36555664 -101.26391602 222.63110352 C-102.27454102 222.46610352 -103.28516602 222.30110352 -104.32641602 222.13110352 C-109.97050957 220.5480041 -113.32070813 215.70835549 -116.33973122 210.92744923 C-117.59369717 207.8116878 -117.52216271 205.17705514 -117.53134155 201.81925964 C-117.53587267 201.13474411 -117.54040378 200.45022857 -117.5450722 199.74497014 C-117.55772924 197.45198172 -117.55609501 195.15923042 -117.55444336 192.86621094 C-117.56042785 191.22182408 -117.56723322 189.57744004 -117.57479858 187.93305969 C-117.59247507 183.46601186 -117.59715469 178.99904063 -117.59843016 174.5319612 C-117.59985152 171.74049504 -117.60412085 168.94904837 -117.60942459 166.15758705 C-117.62793115 156.41721993 -117.63609452 146.67690756 -117.63452148 136.93652344 C-117.63332029 127.86038101 -117.65441662 118.78447647 -117.68600881 109.70839423 C-117.71217252 101.91377748 -117.72288872 94.11923842 -117.72161067 86.32457811 C-117.72110101 81.67025634 -117.7267861 77.0161459 -117.74796677 72.3618679 C-117.76735047 67.98282129 -117.76747282 63.60418756 -117.7529335 59.22512627 C-117.75084438 57.62033738 -117.75555254 56.01552266 -117.76765442 54.41077805 C-117.78313967 52.214669 -117.77377911 50.01997781 -117.75839233 47.82389832 C-117.75948187 46.59665637 -117.7605714 45.36941442 -117.76169395 44.10498333 C-116.95729895 38.49129226 -114.25360269 33.94828312 -109.82641602 30.31860352 C-108.99303711 29.6128418 -108.99303711 29.6128418 -108.14282227 28.89282227 C-103.04472206 25.46935789 -98.33465378 25.29917176 -92.38500977 25.26000977 C-91.53592545 25.25098129 -90.68684113 25.24195282 -89.81202698 25.23265076 C-88.02266957 25.21818439 -86.2332597 25.20927053 -84.44384766 25.20556641 C-81.70653942 25.19362586 -78.97145507 25.14437138 -76.23461914 25.09399414 C-74.49309365 25.08453406 -72.75155437 25.07729704 -71.01000977 25.07250977 C-70.19326279 25.05297745 -69.37651581 25.03344513 -68.53501892 25.01332092 C-64.56817666 25.04486249 -62.70127875 25.22362561 -59.74853516 27.97460938 C-57.93447298 31.22059038 -57.6404487 32.96823304 -58.26391602 36.63110352 C-60.13101512 38.93385908 -61.62039343 40.30934222 -64.26391602 41.63110352 C-66.78043056 41.72715511 -69.27440626 41.76815744 -71.79125977 41.77172852 C-73.32057159 41.79005168 -74.8498689 41.80962153 -76.37915039 41.83032227 C-78.79338134 41.85933533 -81.2066769 41.88110458 -83.62109375 41.8815918 C-85.94949594 41.88492046 -88.27573271 41.91942378 -90.60375977 41.95922852 C-91.68668556 41.94862396 -91.68668556 41.94862396 -92.79148865 41.93780518 C-95.08076589 41.9389148 -95.08076589 41.9389148 -98.26391602 42.63110352 C-116.62708247 73.23638095 -101.91401538 113.94123859 -102.26391602 149.63110352 C130.38608398 149.13610352 130.38608398 149.13610352 367.73608398 148.63110352 C361.96576712 141.75197754 361.96576712 141.75197754 357.88031006 140.77827454 C356.9519635 140.78811874 356.02361694 140.79796295 355.06713867 140.80810547 C354.00203064 140.8015242 352.93692261 140.79494293 351.83953857 140.78816223 C350.70711731 140.81496567 349.57469604 140.8417691 348.40795898 140.86938477 C347.22316956 140.86658005 346.03838013 140.86377533 344.81768799 140.86088562 C341.03955727 140.85561862 337.26389187 140.89613393 333.48608398 140.94360352 C329.72293763 140.97522457 325.96061083 140.99636612 322.19732666 140.9941864 C319.86092852 140.99431507 317.52441662 141.01413307 315.18841553 141.0572052 C304.38949927 141.08601536 295.66105156 138.4431041 287.73608398 131.00610352 C287.15068848 130.48121338 286.56529297 129.95632324 285.9621582 129.41552734 C284.20610456 127.83536545 282.47039008 126.23505985 280.73608398 124.63110352 C279.71919407 123.70905143 278.70103488 122.78839655 277.68139648 121.86938477 C275.84387251 120.20746904 274.01155869 118.53976865 272.18530273 116.86547852 C270.03683699 114.90547468 267.86724591 112.97765861 265.67358398 111.06860352 C265.04838867 110.52075195 264.42319336 109.97290039 263.77905273 109.40844727 C262.24918497 108.07749156 260.70825018 106.75923842 259.16186523 105.44750977 C252.40965706 99.6021675 247.5867328 94.55781527 246.46264648 85.40454102 C246.12755128 77.49113888 248.30952053 71.43761446 253.63842773 65.51782227 C260.68175689 58.98821002 267.42980421 58.26035375 276.73608398 57.63110352 C270.17926955 50.29268206 261.47497788 43.2180767 251.28227699 42.4449892 C248.18686066 42.36800746 245.09709581 42.35689769 242.00071716 42.36608887 C240.81080471 42.3617076 239.62089225 42.35732633 238.39492184 42.35281229 C235.10020228 42.34263255 231.80569549 42.34132745 228.51097548 42.34374738 C224.95469815 42.34416734 221.3984549 42.33306423 217.8421936 42.32328796 C211.68229947 42.30784199 205.52242821 42.29942537 199.3625164 42.295578 C190.45089995 42.28982761 181.53934502 42.27123659 172.62775577 42.24913746 C158.16167796 42.21342784 143.69559668 42.18510951 129.22949219 42.1628418 C128.36392785 42.16150681 127.49836351 42.16017182 126.60656995 42.15879637 C119.58289799 42.1480189 112.5592255 42.13759912 105.53555298 42.12719631 C99.39446996 42.11808597 93.25338717 42.10883353 87.11230469 42.09936523 C86.24749233 42.09803449 85.38267997 42.09670375 84.49166118 42.09533268 C70.07812113 42.07291219 55.66460741 42.04272287 41.2510944 42.00697279 C32.36031495 41.98529923 23.46957649 41.97068479 14.57877208 41.96513402 C8.48952863 41.96089052 2.40032425 41.94966248 -3.68889756 41.93291008 C-7.20341602 41.92349555 -10.71786143 41.91739442 -14.23239326 41.91997337 C-18.04016019 41.92270767 -21.8477888 41.91015672 -25.65553284 41.89611816 C-26.76914187 41.89941714 -27.88275089 41.90271611 -29.03010565 41.90611506 C-30.05002881 41.89988296 -31.06995197 41.89365087 -32.1207819 41.88722992 C-32.99961979 41.88603574 -33.87845768 41.88484157 -34.78392702 41.8836112 C-37.59682061 41.59720781 -39.72169465 40.85418186 -42.26391602 39.63110352 C-44.4159603 36.98995826 -44.26000982 35.51977706 -44.13891602 32.06860352 C-43.26391602 28.63110352 -43.26391602 28.63110352 -41.52075195 26.93457031 C-38.86273789 25.39939754 -37.32910307 25.28235009 -34.27954102 25.33813477 C-33.3449707 25.34780273 -32.41040039 25.3574707 -31.44750977 25.36743164 C-30.47942383 25.39256836 -29.51133789 25.41770508 -28.51391602 25.44360352 C-27.03858398 25.46390625 -27.03858398 25.46390625 -25.53344727 25.48461914 C-23.10971187 25.51991626 -20.68709456 25.56922297 -18.26391602 25.63110352 C-18.2901001 25.05142822 -18.31628418 24.47175293 -18.34326172 23.87451172 C-18.44762214 21.23115477 -18.51235928 18.58823152 -18.57641602 15.94360352 C-18.61831055 15.0315918 -18.66020508 14.11958008 -18.70336914 13.17993164 C-18.71948242 12.29370117 -18.7355957 11.4074707 -18.75219727 10.49438477 C-18.77838135 9.68267822 -18.80456543 8.87097168 -18.83154297 8.03466797 C-18.18774541 5.30856604 -17.20394676 3.63460583 -15.16972828 1.70180225 C-10.68585777 -0.81726775 -4.99098568 -0.04575144 0 0 Z M-2.26391602 16.63110352 C-2.26391602 19.60110352 -2.26391602 22.57110352 -2.26391602 25.63110352 C36.01608398 25.63110352 74.29608398 25.63110352 113.73608398 25.63110352 C113.73608398 22.66110352 113.73608398 19.69110352 113.73608398 16.63110352 C75.45608398 16.63110352 37.17608398 16.63110352 -2.26391602 16.63110352 Z M263.73608398 78.63110352 C262.22261976 81.88667527 262.22261976 81.88667527 262.73608398 85.63110352 C266.25312497 91.61495796 272.21812285 95.75909986 277.56811523 100.00219727 C282.02007635 103.61362812 286.12857269 107.61096885 290.25756836 111.58276367 C298.53591892 119.46423773 305.02602247 124.99183081 316.88061523 124.82641602 C317.65040207 124.82358612 318.4201889 124.82075623 319.21330261 124.81784058 C321.65855823 124.80669508 324.1034401 124.78160133 326.54858398 124.75610352 C328.21199013 124.74606642 329.87540205 124.73694184 331.53881836 124.72875977 C335.60471636 124.70677425 339.67033692 124.67228366 343.73608398 124.63110352 C336.65460549 116.27817129 329.32109809 108.16817676 321.77090073 100.2366724 C319.38796591 97.72980502 317.03568171 95.20494621 314.73950195 92.61816406 C303.36258748 79.4269949 303.36258748 79.4269949 287.69116211 73.17749023 C274.550644 72.3819936 274.550644 72.3819936 263.73608398 78.63110352 Z M-102.26391602 165.63110352 C-102.26391602 171.24110352 -102.26391602 176.85110352 -102.26391602 182.63110352 C56.13608398 182.63110352 214.53608398 182.63110352 377.73608398 182.63110352 C380.27467502 177.55392145 378.73608398 171.30756564 378.73608398 165.63110352 C220.00608398 165.63110352 61.27608398 165.63110352 -102.26391602 165.63110352 Z M-102.26391602 198.63110352 C-101.72404052 204.11470813 -101.72404052 204.11470813 -100.16002804 206.4825083 C-97.22321453 208.26152236 -94.25822817 208.04168173 -90.92612362 208.00862694 C-90.16926664 208.01298726 -89.41240966 208.01734758 -88.63261762 208.02184004 C-86.07577702 208.03285935 -83.51946862 208.02234344 -80.96263123 208.01205444 C-79.1192556 208.01550841 -77.27588203 208.02027121 -75.43251282 208.02623618 C-70.3506362 208.03881251 -65.26892761 208.03254568 -60.18705022 208.02327752 C-54.71241108 208.01651407 -49.23780165 208.02695501 -43.76316833 208.03521729 C-33.02990231 208.04858767 -22.29669907 208.04566165 -11.56343054 208.03697936 C-2.83932525 208.03021373 5.8847624 208.02928125 14.60886955 208.03255081 C16.46897176 208.03324036 16.46897176 208.03324036 18.36665178 208.03394384 C20.88564588 208.03490299 23.40463996 208.03587563 25.92363404 208.03686161 C48.89648893 208.04518148 71.86931599 208.03653999 94.84216405 208.02083382 C115.80820588 208.0066086 136.77419303 208.00785975 157.74023438 208.0222168 C181.29031069 208.03828938 204.8403637 208.04458954 228.39044613 208.03538001 C230.90249343 208.03442435 233.41454074 208.03348123 235.92658806 208.03255081 C237.78063203 208.03185657 237.78063203 208.03185657 239.67213144 208.03114831 C248.38233035 208.02855809 257.09250986 208.03293035 265.80270576 208.03998947 C276.42305397 208.04840714 287.04333567 208.04611914 297.66367627 208.03014724 C303.08256122 208.0222664 308.50133531 208.01916968 313.92021942 208.0290947 C318.882918 208.03804654 323.84540318 208.03310045 328.80808245 208.01716204 C330.60156181 208.01381619 332.39505926 208.01550389 334.18852694 208.0227894 C345.63503523 208.06571346 356.38563631 208.06351064 365.73608398 200.63110352 C366.06608398 199.97110352 366.39608398 199.31110352 366.73608398 198.63110352 C211.96608398 198.63110352 57.19608398 198.63110352 -102.26391602 198.63110352 Z M-84.26391602 223.63110352 C-82.82854752 230.80794597 -79.88178829 234.55173412 -74.04516602 238.65063477 C-69.48994835 241.15800239 -64.33026857 241.21536164 -59.26391602 240.63110352 C-53.29579731 238.8330859 -48.37124583 235.07161868 -45.26391602 229.63110352 C-44.93391602 227.65110352 -44.60391602 225.67110352 -44.26391602 223.63110352 C-57.46391602 223.63110352 -70.66391602 223.63110352 -84.26391602 223.63110352 Z M-27.26391602 223.63110352 C-27.52946289 224.4393457 -27.79500977 225.24758789 -28.06860352 226.08032227 C-28.5984082 227.68327148 -28.5984082 227.68327148 -29.13891602 229.31860352 C-29.48696289 230.3743457 -29.83500977 231.43008789 -30.19360352 232.51782227 C-31.13370004 235.25233661 -32.19000276 237.94632038 -33.26391602 240.63110352 C-28.31391602 240.63110352 -23.36391602 240.63110352 -18.26391602 240.63110352 C-18.26391602 235.02110352 -18.26391602 229.41110352 -18.26391602 223.63110352 C-21.23391602 223.63110352 -24.20391602 223.63110352 -27.26391602 223.63110352 Z M-2.26391602 223.63110352 C-2.26391602 229.24110352 -2.26391602 234.85110352 -2.26391602 240.63110352 C3.34608398 240.63110352 8.95608398 240.63110352 14.73608398 240.63110352 C14.73608398 235.02110352 14.73608398 229.41110352 14.73608398 223.63110352 C9.12608398 223.63110352 3.51608398 223.63110352 -2.26391602 223.63110352 Z M30.73608398 223.63110352 C30.73608398 229.24110352 30.73608398 234.85110352 30.73608398 240.63110352 C35.68608398 240.63110352 40.63608398 240.63110352 45.73608398 240.63110352 C44.1359755 236.15868627 44.1359755 236.15868627 42.53515625 231.68652344 C41.57788989 229.00856214 40.63543975 226.32917082 39.73608398 223.63110352 C36.76608398 223.63110352 33.79608398 223.63110352 30.73608398 223.63110352 Z M55.73608398 223.63110352 C59.03066722 231.31846441 61.88354698 236.48443432 69.56030273 239.93969727 C74.78937578 241.60135961 79.26466829 241.10494925 84.42358398 239.44360352 C90.34768875 236.20211223 94.23987294 233.01030951 96.73608398 226.63110352 C96.73608398 225.64110352 96.73608398 224.65110352 96.73608398 223.63110352 C83.20608398 223.63110352 69.67608398 223.63110352 55.73608398 223.63110352 Z M113.73608398 223.63110352 C113.30295898 224.99235352 112.86983398 226.35360352 112.42358398 227.75610352 C111.16095323 231.57405842 109.57072531 235.04918474 107.73608398 238.63110352 C107.73608398 239.29110352 107.73608398 239.95110352 107.73608398 240.63110352 C117.30608398 240.63110352 126.87608398 240.63110352 136.73608398 240.63110352 C135.41608398 237.33110352 134.09608398 234.03110352 132.73608398 230.63110352 C132.07608398 228.32110352 131.41608398 226.01110352 130.73608398 223.63110352 C125.12608398 223.63110352 119.51608398 223.63110352 113.73608398 223.63110352 Z M147.73608398 223.63110352 C148.82624957 230.17209702 150.16297364 232.26787022 154.73608398 236.63110352 C160.1038484 240.46522095 165.17897617 241.30772815 171.73608398 240.63110352 C178.17947801 238.52033651 183.0835386 235.38534583 186.61108398 229.50610352 C187.91828366 226.6800275 187.91828366 226.6800275 187.73608398 223.63110352 C174.53608398 223.63110352 161.33608398 223.63110352 147.73608398 223.63110352 Z M204.73608398 223.63110352 C204.47053711 224.4393457 204.20499023 225.24758789 203.93139648 226.08032227 C203.4015918 227.68327148 203.4015918 227.68327148 202.86108398 229.31860352 C202.51303711 230.3743457 202.16499023 231.43008789 201.80639648 232.51782227 C200.86629996 235.25233661 199.80999724 237.94632038 198.73608398 240.63110352 C203.68608398 240.63110352 208.63608398 240.63110352 213.73608398 240.63110352 C213.73608398 235.02110352 213.73608398 229.41110352 213.73608398 223.63110352 C210.76608398 223.63110352 207.79608398 223.63110352 204.73608398 223.63110352 Z M229.73608398 223.63110352 C229.73608398 229.24110352 229.73608398 234.85110352 229.73608398 240.63110352 C235.34608398 240.63110352 240.95608398 240.63110352 246.73608398 240.63110352 C246.73608398 235.02110352 246.73608398 229.41110352 246.73608398 223.63110352 C241.12608398 223.63110352 235.51608398 223.63110352 229.73608398 223.63110352 Z M262.73608398 223.63110352 C262.73608398 229.24110352 262.73608398 234.85110352 262.73608398 240.63110352 C267.68608398 240.63110352 272.63608398 240.63110352 277.73608398 240.63110352 C276.1359755 236.15868627 276.1359755 236.15868627 274.53515625 231.68652344 C273.57788989 229.00856214 272.63543975 226.32917082 271.73608398 223.63110352 C268.76608398 223.63110352 265.79608398 223.63110352 262.73608398 223.63110352 Z M287.73608398 223.63110352 C290.9468809 232.19322862 293.56832684 235.58345187 301.17358398 240.06860352 C307.81295843 241.52602717 313.51979862 241.05223081 319.65405273 238.03344727 C325.08789506 234.37350469 327.47503721 229.93633741 328.73608398 223.63110352 C315.20608398 223.63110352 301.67608398 223.63110352 287.73608398 223.63110352 Z " fill="#000000" transform="translate(117.263916015625,127.368896484375)"/>
<path d="M0 0 C1.26364128 -0.00503792 1.26364128 -0.00503792 2.55281067 -0.01017761 C5.34723369 -0.01970313 8.14159689 -0.02163158 10.93603516 -0.02270508 C12.87415594 -0.02591674 14.81227647 -0.02928074 16.75039673 -0.03279114 C20.81749026 -0.03878655 24.88456252 -0.04063063 28.95166016 -0.04003906 C34.16617034 -0.03993746 39.3805443 -0.05358581 44.5950222 -0.07081127 C48.5995649 -0.08192418 52.6040746 -0.08395848 56.60863113 -0.08342934 C58.53117975 -0.08461067 60.45372919 -0.08904103 62.37626266 -0.0967617 C65.06474114 -0.10654647 67.75292312 -0.10368944 70.44140625 -0.09765625 C71.23739731 -0.10327576 72.03338837 -0.10889526 72.85350037 -0.11468506 C79.67944255 -0.07571176 79.67944255 -0.07571176 82.85009766 2.14526367 C84.93168786 4.82159393 84.84597356 6.26280035 84.72509766 9.70776367 C83.85009766 13.14526367 83.85009766 13.14526367 81.97509766 15.08276367 C79.85009766 16.14526367 79.85009766 16.14526367 76.85009766 16.14526367 C76.86057129 17.39138428 76.87104492 18.63750488 76.88183594 19.92138672 C76.9180851 24.5525423 76.9410161 29.18368537 76.95996094 33.81494141 C76.97000729 35.81789256 76.98364675 37.82082909 77.00097656 39.82373047 C77.02528478 42.70568455 77.03659452 45.58744439 77.04541016 48.46948242 C77.05573273 49.36237473 77.0660553 50.25526703 77.07669067 51.17521667 C77.07816823 59.39621631 77.07816823 59.39621631 74.85009766 63.14526367 C71.40668643 66.50770304 68.64917648 66.51996685 63.94189453 66.51757812 C63.25523209 66.52122879 62.56856964 66.52487946 61.86109924 66.52864075 C59.59676189 66.53673077 57.33314369 66.52314973 55.06884766 66.50854492 C53.49230958 66.50802612 51.91577084 66.50854458 50.3392334 66.51005554 C47.0372551 66.50996589 43.73552131 66.49955062 40.43359375 66.48144531 C36.20333345 66.45875831 31.97343031 66.45821476 27.74312592 66.46496296 C24.48831006 66.46830615 21.23357546 66.46166626 17.97877502 66.45183372 C16.4190768 66.44798748 14.85936952 66.44683113 13.29966736 66.44841957 C11.11903697 66.44879088 8.93886259 66.43615212 6.75830078 66.41992188 C4.89776062 66.41301079 4.89776062 66.41301079 2.99963379 66.40596008 C0.0004552 66.15770921 -1.67839679 65.80972455 -4.14990234 64.14526367 C-6.95276662 59.60152768 -6.40340704 54.40761175 -6.34521484 49.25073242 C-6.34238495 48.30337723 -6.33955505 47.35602203 -6.3366394 46.37995911 C-6.32547421 43.36409701 -6.30037623 40.34853551 -6.27490234 37.33276367 C-6.26486782 35.28393985 -6.25574279 33.23511135 -6.24755859 31.1862793 C-6.22554683 26.17249219 -6.19104206 21.15892884 -6.14990234 16.14526367 C-6.93751953 16.01506836 -7.72513672 15.88487305 -8.53662109 15.75073242 C-11.14990234 15.14526367 -11.14990234 15.14526367 -12.96240234 13.45776367 C-14.52757179 10.40980212 -14.64356922 8.53040794 -14.14990234 5.14526367 C-9.92564628 -0.06465213 -6.3564045 -0.00360061 0 0 Z M9.85009766 16.14526367 C9.85009766 27.36526367 9.85009766 38.58526367 9.85009766 50.14526367 C26.68009766 50.14526367 43.51009766 50.14526367 60.85009766 50.14526367 C60.85009766 38.92526367 60.85009766 27.70526367 60.85009766 16.14526367 C44.02009766 16.14526367 27.19009766 16.14526367 9.85009766 16.14526367 Z " fill="#000000" transform="translate(262.14990234375,193.854736328125)"/>
<path d="M0 0 C0.84111328 -0.00511093 1.68222656 -0.01022186 2.54882812 -0.01548767 C5.32762784 -0.02938112 8.10617946 -0.02842712 10.88500977 -0.02612305 C12.81787712 -0.03001006 14.75074362 -0.03434474 16.68360901 -0.03910828 C20.7345761 -0.04656991 24.78545604 -0.04627957 28.83642578 -0.04101562 C34.0262003 -0.03522052 39.215618 -0.0521533 44.40533352 -0.0753603 C48.39705998 -0.09009591 52.38870046 -0.09096958 56.3804493 -0.08785057 C58.29380055 -0.08836385 60.20715661 -0.09360284 62.12048149 -0.10366249 C64.79670237 -0.11600645 67.47222766 -0.1092476 70.1484375 -0.09765625 C71.33231804 -0.10912186 71.33231804 -0.10912186 72.54011536 -0.12081909 C77.07501676 -0.07743051 80.04284574 0.43982847 83.63891602 3.2746582 C85.18478477 6.36639572 84.93251123 8.86895373 84.63891602 12.2746582 C82.88891602 14.7121582 82.88891602 14.7121582 80.63891602 16.2746582 C79.31891602 16.2746582 77.99891602 16.2746582 76.63891602 16.2746582 C76.64938965 17.58660156 76.65986328 18.89854492 76.6706543 20.25024414 C76.70685649 25.11805492 76.72981737 29.9858538 76.7487793 34.85375977 C76.75883635 36.96055096 76.77248369 39.06732819 76.78979492 41.17407227 C76.81405602 44.20242762 76.8254021 47.23059839 76.83422852 50.2590332 C76.84455109 51.20083435 76.85487366 52.1426355 76.86550903 53.11297607 C76.8656601 53.99358704 76.86581116 54.874198 76.8659668 55.78149414 C76.87040802 56.55426697 76.87484924 57.32703979 76.87942505 58.12322998 C76.59722516 60.64759593 76.05413319 62.16275368 74.63891602 64.2746582 C71.25189694 66.73096071 67.92088592 66.53389329 63.83837891 66.54931641 C63.16307632 66.55442734 62.48777374 66.55953827 61.79200745 66.56480408 C59.56510495 66.5786764 57.33851277 66.57774515 55.11157227 66.57543945 C53.55984889 66.57932768 52.00812658 66.58366261 50.45640564 66.58842468 C47.20576526 66.59588179 43.9552335 66.59559932 40.70458984 66.59033203 C36.5438617 66.58453785 32.38357878 66.60146928 28.22292423 66.6246767 C25.01868602 66.63942555 21.81455476 66.6402842 18.61028862 66.63716698 C17.07652339 66.63767961 15.54275209 66.64290643 14.00901985 66.6529789 C11.86200348 66.66534885 9.71585073 66.65854925 7.56884766 66.64697266 C5.73828575 66.64791679 5.73828575 66.64791679 3.8707428 66.64888 C0.05217774 66.20671822 -2.62343255 65.01230964 -5.36108398 62.2746582 C-5.45404214 60.83176034 -5.47854911 59.38436036 -5.47460938 57.93847656 C-5.47453384 57.0175975 -5.47445831 56.09671844 -5.47438049 55.14793396 C-5.46921921 54.1469014 -5.46405792 53.14586884 -5.45874023 52.11450195 C-5.45732529 51.09489883 -5.45591034 50.07529572 -5.45445251 49.02479553 C-5.44883495 45.75388713 -5.43627948 42.48304607 -5.42358398 39.2121582 C-5.41857125 37.00057065 -5.41400795 34.78898202 -5.40991211 32.57739258 C-5.39885982 27.14312463 -5.38210461 21.70889623 -5.36108398 16.2746582 C-6.30983398 16.16379883 -7.25858398 16.05293945 -8.23608398 15.9387207 C-11.36108398 15.2746582 -11.36108398 15.2746582 -13.36108398 12.6496582 C-14.62116841 8.39687327 -14.14207158 6.30123884 -12.36108398 2.2746582 C-8.71487814 -0.48442835 -4.3664367 -0.0136709 0 0 Z M10.63891602 16.2746582 C10.63891602 27.4946582 10.63891602 38.7146582 10.63891602 50.2746582 C27.13891602 50.2746582 43.63891602 50.2746582 60.63891602 50.2746582 C60.63891602 39.0546582 60.63891602 27.8346582 60.63891602 16.2746582 C44.13891602 16.2746582 27.63891602 16.2746582 10.63891602 16.2746582 Z " fill="#000000" transform="translate(154.361083984375,193.725341796875)"/>
<path d="M0 0 C0.83121368 -0.0049649 1.66242737 -0.00992981 2.51882935 -0.01504517 C5.27053656 -0.02965864 8.02218613 -0.03646718 10.77392578 -0.04199219 C12.68580121 -0.04774399 14.59767661 -0.05350172 16.509552 -0.05926514 C20.51939157 -0.06977258 24.5292111 -0.07561703 28.5390625 -0.07910156 C33.67615599 -0.08458796 38.81298464 -0.10862019 43.94999504 -0.13707352 C47.89967624 -0.15569976 51.84929363 -0.16090547 55.79901505 -0.16243744 C57.69283624 -0.16546416 59.58665631 -0.17349334 61.48043442 -0.18662262 C64.13039038 -0.203684 66.77969885 -0.20180279 69.4296875 -0.1953125 C70.6018985 -0.20913467 70.6018985 -0.20913467 71.79779053 -0.22323608 C76.7664641 -0.18512948 80.26315929 0.58005382 83.84423828 4.16113281 C84.43124038 11.32255839 84.43124038 11.32255839 82.09423828 14.66113281 C79.84423828 16.16113281 79.84423828 16.16113281 75.84423828 16.16113281 C75.85423103 16.99345428 75.85423103 16.99345428 75.86442566 17.84259033 C75.93079326 23.61749477 75.97604469 29.39229088 76.0090332 35.16748047 C76.02412011 37.32279867 76.04459217 39.47808617 76.07055664 41.63330078 C76.10694372 44.73119686 76.12396567 47.82868704 76.13720703 50.92675781 C76.15269089 51.89043274 76.16817474 52.85410767 76.18412781 53.84698486 C76.1843544 54.74761658 76.18458099 55.64824829 76.18481445 56.57617188 C76.19480721 57.76197845 76.19480721 57.76197845 76.20500183 58.97174072 C75.74561681 61.75964414 74.76518949 63.11368033 72.84423828 65.16113281 C69.42169438 66.30198078 66.76742305 66.30209011 63.15722656 66.32226562 C62.14449173 66.32971298 62.14449173 66.32971298 61.11129761 66.33731079 C58.87903827 66.35190879 56.64684999 66.35873028 54.41455078 66.36425781 C52.86139932 66.37001101 51.30824787 66.37576873 49.75509644 66.38153076 C46.49851145 66.39203389 43.2419511 66.39788112 39.98535156 66.40136719 C35.81677758 66.40685189 31.64853023 66.43088205 27.48005867 66.45933914 C24.27154596 66.4779817 21.0631117 66.48317197 17.85454941 66.48470306 C16.31798389 66.48772625 14.78141965 66.49574354 13.24490738 66.50888824 C11.09303315 66.52598393 8.94195405 66.52406047 6.79003906 66.51757812 C4.95495285 66.52304657 4.95495285 66.52304657 3.08279419 66.52862549 C-0.45213 66.12750265 -2.33237238 65.28720656 -5.15576172 63.16113281 C-6.33176202 60.80913222 -6.27660713 59.42378881 -6.26928711 56.80322266 C-6.26921158 55.90243988 -6.26913605 55.0016571 -6.26905823 54.07357788 C-6.26389694 53.09958038 -6.25873566 52.12558289 -6.25341797 51.12207031 C-6.25200302 50.12607819 -6.25058807 49.13008606 -6.24913025 48.10391235 C-6.24352108 44.91462229 -6.23096701 41.72540176 -6.21826172 38.53613281 C-6.2132479 36.37727966 -6.20868479 34.21842541 -6.20458984 32.05957031 C-6.19354867 26.76006731 -6.17680159 21.46060503 -6.15576172 16.16113281 C-6.94337891 16.01804688 -7.73099609 15.87496094 -8.54248047 15.72753906 C-11.15576172 15.16113281 -11.15576172 15.16113281 -12.96826172 14.09863281 C-14.89159828 10.96055736 -14.7155415 7.73625967 -14.15576172 4.16113281 C-10.84064726 -0.73260758 -5.33285021 0.00758906 0 0 Z M9.84423828 16.16113281 C9.84423828 27.38113281 9.84423828 38.60113281 9.84423828 50.16113281 C26.34423828 50.16113281 42.84423828 50.16113281 59.84423828 50.16113281 C59.84423828 38.94113281 59.84423828 27.72113281 59.84423828 16.16113281 C43.34423828 16.16113281 26.84423828 16.16113281 9.84423828 16.16113281 Z " fill="#000000" transform="translate(47.15576171875,193.8388671875)"/>
</svg>
