<?xml version="1.0" encoding="UTF-8"?>
<svg version="1.1" xmlns="http://www.w3.org/2000/svg" width="512" height="512">
<path d="M0 0 C1.01773499 -0.00172211 2.03546997 -0.00344421 3.08404541 -0.00521851 C23.13045951 -0.00133188 43.92233218 0.85225017 62.0625 10.375 C62.89394531 10.78234375 63.72539062 11.1896875 64.58203125 11.609375 C77.07739524 18.27856478 81.08309321 29.94555129 85.15234375 42.82421875 C89.81377957 59.93960384 91.52340885 79.6530548 91.0625 97.375 C91.79855469 97.36339844 92.53460938 97.35179688 93.29296875 97.33984375 C94.26878906 97.33082031 95.24460937 97.32179688 96.25 97.3125 C97.21292969 97.30089844 98.17585938 97.28929688 99.16796875 97.27734375 C101.91826513 97.37013378 104.38729591 97.75388315 107.0625 98.375 C106.9696875 96.89 106.9696875 96.89 106.875 95.375 C106.86612965 91.01965933 108.12015052 87.2507891 110.0625 83.375 C116.01387112 77.42362888 132.29198254 79.73361813 140.21386719 79.47021484 C141.9204267 79.41317352 143.62687434 79.35230366 145.33300781 79.28369141 C165.79092692 78.48192074 165.79092692 78.48192074 171.9140625 84.0625 C173.47149877 87.19856215 173.35445894 89.64303547 173.25 93.125 C173.22292969 94.29546875 173.19585937 95.4659375 173.16796875 96.671875 C173.11576172 98.00992188 173.11576172 98.00992188 173.0625 99.375 C174.196875 99.33375 175.33125 99.2925 176.5 99.25 C184.12071062 99.26348798 192.02263395 100.77810172 197.84375 105.9609375 C207.66029509 116.15184236 207.93049825 129.02696301 208.75 142.375 C208.87203518 144.17437974 208.99501035 145.97369597 209.11889648 147.77294922 C209.8568768 158.75636766 210.39348804 169.73791836 210.72167969 180.74145508 C210.96009993 188.53319386 211.43575023 196.28803884 212 204.0625 C212.67615057 213.43030466 213.1908219 222.79113929 213.56640625 232.17578125 C213.60813461 233.2179631 213.64986298 234.26014496 213.69285583 235.33390808 C213.89766948 240.52135239 214.09267321 245.70900962 214.27709961 250.8972168 C214.73311659 263.21470315 215.62709754 275.42635433 216.81140137 287.69354248 C219.1361808 312.5196326 220.35512386 337.37981631 220.375 362.3125 C220.3801059 363.80385971 220.3801059 363.80385971 220.38531494 365.3253479 C220.40661936 376.12590477 220.09378172 386.86063377 219.23046875 397.62890625 C219.16160965 398.54478012 219.09275055 399.46065399 219.02180481 400.40428162 C218.0848936 410.85873708 216.43543037 420.348644 208.0625 427.375 C203.41817234 430.26637102 198.01080388 431.72456489 192.55859375 431.078125 C188.11671727 430.65803098 185.26178418 430.3881718 181.703125 433.31640625 C180.19420673 435.06878474 178.71753897 436.84930787 177.26953125 438.65234375 C164.48367777 454.42533468 140.90259633 461.84690347 121.4765625 464.0625 C117.26333172 464.44815041 113.28331626 464.67508895 109.0625 464.375 C107.86753906 464.29507812 106.67257812 464.21515625 105.44140625 464.1328125 C81.23329939 462.09475239 52.58746478 452.89996478 35.0625 435.375 C32.54515003 435.13763928 30.05236841 434.96214517 27.52880859 434.83227539 C26.76282537 434.79045419 25.99684216 434.74863298 25.20764732 434.70554447 C17.3416179 434.29901175 9.4767124 434.15024727 1.6015625 434.05859375 C0.03593674 434.03781214 -1.52968616 434.01681427 -3.0953064 433.99562073 C-7.29511382 433.94020561 -11.49497068 433.89065837 -15.69487 433.84277344 C-18.330981 433.81228626 -20.96706508 433.78002115 -23.60314941 433.74731445 C-44.49333565 433.49042941 -65.38160585 433.33830079 -86.2734375 433.34765625 C-87.22098782 433.34804838 -88.16853813 433.34844051 -89.14480209 433.34884453 C-98.35186682 433.35402164 -107.55884977 433.36909235 -116.76585579 433.40277004 C-120.16511276 433.41455991 -123.56437369 433.42268627 -126.96364212 433.43037224 C-129.26871618 433.43723027 -131.57370713 433.44984884 -133.87875366 433.46278381 C-142.27765004 433.49182523 -150.57441072 433.17602154 -158.9375 432.375 C-158.7828125 433.73625 -158.7828125 433.73625 -158.625 435.125 C-158.69998551 444.40445654 -164.11332835 452.70029682 -170.328125 459.17578125 C-180.45313153 467.70928226 -191.17691446 469.26849268 -203.9375 468.375 C-215.39159466 466.02784945 -225.29033608 460.0874364 -231.9375 450.375 C-235.19199928 444.32817886 -236.44351629 439.20621988 -235.9375 432.375 C-236.58332031 432.38660156 -237.22914063 432.39820313 -237.89453125 432.41015625 C-244.48161769 432.47323369 -251.04611875 432.30411749 -257.625 432 C-258.40786377 431.96914307 -259.19072754 431.93828613 -259.99731445 431.90649414 C-269.91194326 431.40613359 -277.24592606 429.8483612 -284.625 422.8125 C-289.94970614 416.02107579 -290.48070217 405.93873581 -291.10546875 397.62890625 C-291.18484177 396.638871 -291.26421478 395.64883575 -291.34599304 394.62879944 C-292.14675672 383.85883921 -292.28695928 373.10778089 -292.25 362.3125 C-292.24917419 361.27660736 -292.24834839 360.24071472 -292.24749756 359.1734314 C-292.20294893 334.51248205 -290.88064982 309.86241162 -288.44458008 285.32006836 C-286.87263571 269.40152744 -286.14606015 253.46632163 -285.46777344 237.49060059 C-285.22147102 231.70800306 -284.96704661 225.92576219 -284.71104622 220.14358711 C-284.6241853 218.16042826 -284.54048132 216.17713192 -284.45689392 214.1938324 C-284.15250566 207.20349633 -283.73591743 200.23772905 -283.15281677 193.26486206 C-282.86477952 189.39898616 -282.75166257 185.53656557 -282.6472168 181.66210938 C-282.31316807 169.43996911 -281.64680846 157.23963454 -280.80609131 145.0428772 C-280.68657672 143.28216181 -280.57256867 141.52106288 -280.4644165 139.75961304 C-279.64938591 126.63868254 -278.61620813 115.1074843 -269.0859375 105.1875 C-265.93443762 102.5287801 -262.92960142 101.2686294 -258.9375 100.375 C-257.9475 100.148125 -256.9575 99.92125 -255.9375 99.6875 C-252.23995251 99.3023388 -248.65450622 99.31091369 -244.9375 99.375 C-244.99550781 98.49457031 -245.05351562 97.61414063 -245.11328125 96.70703125 C-245.47773071 87.3250609 -245.47773071 87.3250609 -243.125 83.1875 C-234.60038521 78.34017002 -224.45673396 79.06415139 -214.9375 79.375 C-213.52307617 79.41995605 -213.52307617 79.41995605 -212.08007812 79.46582031 C-208.88632768 79.57254464 -205.69317719 79.68984305 -202.5 79.8125 C-201.46915283 79.85157471 -200.43830566 79.89064941 -199.3762207 79.9309082 C-185.29784699 80.53064669 -185.29784699 80.53064669 -182.125 82.5 C-178.95854296 87.49966901 -178.8481967 92.63211061 -178.9375 98.375 C-177.73351562 98.230625 -176.52953125 98.08625 -175.2890625 97.9375 C-173.71354894 97.74993886 -172.13802771 97.5624422 -170.5625 97.375 C-169.7684375 97.27960938 -168.974375 97.18421875 -168.15625 97.0859375 C-162.1640625 96.375 -162.1640625 96.375 -159.9375 96.375 C-160.09734375 95.40175781 -160.2571875 94.42851563 -160.421875 93.42578125 C-162.84706663 76.28174043 -159.952857 59.2933504 -155.5 42.75 C-155.30704346 42.02804443 -155.11408691 41.30608887 -154.9152832 40.56225586 C-152.12475902 30.77096289 -147.70929236 22.10388164 -138.96875 16.45703125 C-116.46251118 4.35218491 -88.24155181 3.85554864 -63.34560013 2.31354523 C-61.28756158 2.1859539 -59.22970506 2.05565911 -57.17184448 1.92523193 C-38.11528278 0.72917466 -19.09969188 -0.00825144 0 0 Z M-60.875 13.125 C-62.08307312 13.20350189 -63.29114624 13.28200378 -64.53582764 13.36288452 C-103.42041805 13.93317661 -103.42041805 13.93317661 -137.30078125 29.19921875 C-150.84650226 47.20629895 -151.2191035 74.82972498 -150.9375 96.375 C-146.88070623 96.39977373 -142.82394194 96.41789493 -138.76708984 96.42993164 C-137.38785027 96.43495118 -136.00861598 96.44176819 -134.62939453 96.45043945 C-132.64357817 96.4626092 -130.65772251 96.46771633 -128.671875 96.47265625 C-127.47788086 96.47789307 -126.28388672 96.48312988 -125.05371094 96.48852539 C-122.47055383 96.39441946 -120.38741581 96.14126155 -117.9375 95.375 C-117.98390625 94.405625 -118.0303125 93.43625 -118.078125 92.4375 C-118.47323713 80.31564291 -117.20900802 68.06715635 -110.9375 57.375 C-92.01337709 38.95217836 -54.23163347 43.04819259 -30.03515625 43.2890625 C-28.00260164 43.31752868 -25.97004984 43.34619558 -23.9375 43.375 C-22.62249512 43.38756836 -21.30749023 43.40013672 -19.95263672 43.41308594 C-16.2859802 43.44978287 -12.62024843 43.5105798 -8.9541626 43.58453369 C-7.5066323 43.61110896 -6.05897516 43.63160636 -4.61126709 43.64544678 C6.70239655 43.76459356 17.81593775 44.82452354 26.29296875 53.12890625 C35.38096567 64.66444318 37.12395127 81.41295658 40.0625 95.375 C48.44250387 96.47099874 56.7469987 96.49192784 65.1875 96.4375 C66.53906083 96.43247139 67.89062348 96.42791091 69.2421875 96.42382812 C72.51567265 96.41213711 75.78906186 96.39575029 79.0625 96.375 C79.38559843 57.44782879 79.38559843 57.44782879 62.875 23.9375 C48.34113826 13.23329513 27.88222866 11.29128755 10.3203125 11.13671875 C9.38352158 11.12701553 8.44673065 11.11731232 7.48155212 11.10731506 C4.38349076 11.0821548 1.28565403 11.06971374 -1.8125 11.0625 C-3.42537399 11.05857239 -3.42537399 11.05857239 -5.0708313 11.05456543 C-23.71997757 11.0497853 -42.27065877 11.87099167 -60.875 13.125 Z M-103.9375 64.375 C-108.8999236 73.58618763 -110.02118918 85.05259989 -109.9375 95.375 C-76.08004049 95.9375312 -42.22231093 96.47498785 -8.35946655 96.49731445 C-5.71055951 96.49909983 -3.06165305 96.50250865 -0.41275024 96.50756836 C3.26782974 96.51339589 6.94832561 96.51201983 10.62890625 96.5078125 C12.24597977 96.51078842 12.24597977 96.51078842 13.89572144 96.51382446 C18.72978297 96.49869369 23.31160524 96.39714529 28.0625 95.375 C28.81551015 82.82483083 25.38463638 68.42323466 17.75 58.3125 C12.0496469 54.20294312 6.20210398 52.92399777 -0.78369141 53.00268555 C-1.52315002 52.99903488 -2.26260864 52.99538422 -3.0244751 52.99162292 C-5.44624502 52.98358083 -7.86733185 52.99708197 -10.2890625 53.01171875 C-11.99286905 53.01223845 -13.69667621 53.0117165 -15.40048218 53.01020813 C-18.96613561 53.01029759 -22.53156176 53.02066766 -26.09716797 53.03881836 C-30.62899212 53.06140052 -35.16048176 53.06206548 -39.69234657 53.05530071 C-43.21177043 53.05192898 -46.73112049 53.05865218 -50.25053024 53.06842995 C-51.91918932 53.07223511 -53.58785668 53.07345 -55.25651932 53.0718441 C-81.41726124 52.88093046 -81.41726124 52.88093046 -103.9375 64.375 Z M-235.9375 90.375 C-237.4158226 93.33164519 -236.99782783 96.11729737 -236.9375 99.375 C-232.69595466 100.56534881 -228.56665357 100.51865614 -224.19140625 100.5078125 C-223.34327866 100.50876923 -222.49515106 100.50972595 -221.62132263 100.51071167 C-219.83014858 100.51139121 -218.03897204 100.50955269 -216.24780273 100.50537109 C-213.51345248 100.5000263 -210.77926698 100.50532032 -208.04492188 100.51171875 C-206.30208297 100.5110578 -204.55924417 100.50977628 -202.81640625 100.5078125 C-202.0016835 100.50983673 -201.18696075 100.51186096 -200.34754944 100.51394653 C-196.41032007 100.49777658 -192.78190746 100.34683841 -188.9375 99.375 C-189.4325 94.92 -189.4325 94.92 -189.9375 90.375 C-213.17135261 87.20010358 -213.17135261 87.20010358 -235.9375 90.375 Z M118.0625 90.375 C117.7325 93.345 117.4025 96.315 117.0625 99.375 C121.70377487 100.54828073 126.18903397 100.51962007 130.94140625 100.5078125 C131.79049057 100.50876923 132.63957489 100.50972595 133.51438904 100.51071167 C135.3037829 100.51139028 137.09317927 100.50955831 138.88256836 100.50537109 C141.61903409 100.50001168 144.35533618 100.50533032 147.09179688 100.51171875 C148.83333369 100.51105804 150.57487041 100.50977703 152.31640625 100.5078125 C153.54152672 100.51084885 153.54152672 100.51084885 154.79139709 100.51394653 C158.38396182 100.49913125 161.60581738 100.34508465 165.0625 99.375 C165.35812367 94.05329506 165.35812367 94.05329506 163.0625 89.375 C148.87499322 85.85861222 132.40328403 89.03517274 118.0625 90.375 Z M-176.52270508 110.5378418 C-177.6908374 110.669729 -178.85896973 110.80161621 -180.0625 110.9375 C-181.23514404 111.07003174 -182.40778809 111.20256348 -183.6159668 111.33911133 C-200.79284713 113.04733941 -218.11437623 112.84042683 -235.36181641 112.90844727 C-236.60608902 112.91864395 -237.85036163 112.92884064 -239.13233948 112.93934631 C-241.49029311 112.95849066 -243.84838328 112.96572676 -246.20640564 112.95921326 C-253.15157067 113.02617072 -257.94322799 113.54707644 -263.1875 118.5 C-268.25865988 126.83119123 -267.77569848 138.22442737 -268.5 147.75 C-268.56475525 148.57382172 -268.6295105 149.39764343 -268.69622803 150.24642944 C-269.78316316 164.17855001 -270.38634104 178.0950145 -270.64672852 192.06591797 C-270.66054062 192.76076797 -270.67435272 193.45561798 -270.68858337 194.17152405 C-270.72377607 196.02873414 -270.75207699 197.88607137 -270.77978516 199.7434082 C-270.89746736 202.45319571 -271.1081414 205.04957384 -271.42822266 207.73535156 C-271.98027299 212.4274694 -272.1683917 217.08827869 -272.296875 221.80859375 C-272.35798743 223.72056668 -272.419965 225.6325121 -272.48266602 227.54443359 C-272.51546661 228.56075867 -272.54826721 229.57708374 -272.58206177 230.62420654 C-273.47842744 257.72895524 -275.2620768 284.75016657 -277.17285156 311.79858398 C-280.04669661 350.20551904 -280.04669661 350.20551904 -278.82055664 388.6484375 C-278.62279322 390.90012593 -278.44490044 393.15287009 -278.26757812 395.40625 C-278.14181944 396.86468682 -278.01490879 398.32302487 -277.88671875 399.78125 C-277.77674561 401.07353516 -277.66677246 402.36582031 -277.5534668 403.69726562 C-276.75786634 408.44753328 -275.56237546 412.73986217 -272.08203125 416.2421875 C-261.57029174 421.79483678 -245.50784965 420.01022927 -233.9375 420.375 C-232.9475 418.065 -231.9575 415.755 -230.9375 413.375 C-231.62457031 413.12105469 -232.31164062 412.86710937 -233.01953125 412.60546875 C-234.37111328 412.08919922 -234.37111328 412.08919922 -235.75 411.5625 C-236.64332031 411.22605469 -237.53664062 410.88960938 -238.45703125 410.54296875 C-240.90043427 409.392453 -242.31125689 408.51479356 -243.9375 406.375 C-244.125 403.1875 -244.125 403.1875 -243.9375 400.375 C-242.7928125 400.065625 -242.7928125 400.065625 -241.625 399.75 C-238.54917181 398.60308101 -236.12736796 397.38129356 -233.3125 395.75 C-224.91943123 391.0654965 -215.90841344 387.77144186 -206.9375 384.375 C-205.11798828 383.68277344 -205.11798828 383.68277344 -203.26171875 382.9765625 C-197.64385068 380.96355259 -192.91410613 379.60025476 -186.9375 380.375 C-184.61659798 383.85635304 -184.53043685 386.07113466 -184 390.1875 C-183.00584875 395.47889715 -183.00584875 395.47889715 -179.54296875 399.34765625 C-177.62493545 400.28961788 -175.6848491 401.18783305 -173.7265625 402.04296875 C-165.48210587 405.98044734 -162.21489778 414.35237117 -158.9375 422.375 C-157.66240822 422.2678064 -157.66240822 422.2678064 -156.36155701 422.15844727 C-147.9185644 421.49530637 -139.56378271 421.25299232 -131.09765625 421.3125 C-129.14833562 421.31878241 -127.19901492 421.32505574 -125.24969292 421.33089542 C-123.2172424 421.33769811 -121.18481303 421.34674358 -119.15237427 421.35641479 C-112.17453048 421.38889251 -105.19666333 421.40376157 -98.21875 421.41015625 C-97.53888597 421.41082659 -96.85902195 421.41149693 -96.15855598 421.41218758 C-85.75989917 421.41809864 -75.38868606 421.2518653 -65 420.8125 C-55.79428356 420.42485771 -46.74555786 420.44965032 -37.54663086 420.96850586 C-30.04441856 421.38013633 -22.57494152 421.42006351 -15.0625 421.375 C0.99386976 421.28682006 17.01831256 421.80172104 33.0625 422.375 C36.51463648 415.76639614 39.30363967 408.98491327 42.0625 402.0625 C46.03261133 392.23039292 50.11115624 382.45857866 54.375 372.75 C54.85388672 371.64358154 55.33277344 370.53716309 55.82617188 369.3972168 C63.95791308 351.04878069 63.95791308 351.04878069 73.0625 347.375 C76.7292582 346.93996089 79.01718217 346.89471884 82.375 348.4375 C84.7352988 351.1474727 85.27915719 353.91523591 86.0625 357.375 C88.65341115 355.02242192 90.26493521 352.52830936 92 349.5 C99.05943052 337.6312251 109.26088798 330.78043433 122.44140625 326.625 C138.91577489 322.49924507 157.17221174 327.82770445 171.3984375 336.31494141 C183.46134241 343.99937995 190.3285427 355.95075987 193.8125 369.5625 C196.68492675 384.1298071 195.93821656 399.09710117 192.0625 413.375 C191.71611565 415.03900324 191.37813523 416.70489123 191.0625 418.375 C196.30458995 417.96385569 199.39810611 417.24878783 203.0625 413.375 C204.87593911 408.89615681 205.48818029 404.67529294 205.9140625 399.87890625 C206.00969986 398.81300514 206.00969986 398.81300514 206.10726929 397.72557068 C206.24011434 396.22401494 206.36933215 394.72213434 206.49511719 393.2199707 C206.68439109 390.97438482 206.88814201 388.73047015 207.09375 386.48632812 C208.58522262 369.67220323 207.87660547 353.18869393 206.8125 336.375 C206.67944967 334.21104347 206.54681124 332.04706159 206.41455078 329.88305664 C205.68537061 318.02047369 204.92068704 306.16027305 204.14252281 294.3008194 C203.78324753 288.82082223 203.42628579 283.34067447 203.07048416 277.86045074 C202.98185929 276.49563121 202.89312188 275.13081898 202.8042717 273.7660141 C201.60088476 255.26453252 200.58345938 236.79598601 200.23828125 218.2578125 C200.16580191 214.80098049 200.00310074 211.42924272 199.56640625 208 C198.83319094 202.15152963 198.84550344 196.27814634 198.73175049 190.39138794 C198.45990233 177.23599961 197.84492891 164.11806646 196.87615967 150.99542236 C196.75172689 149.30831362 196.63091808 147.62093315 196.51397705 145.93328857 C196.22433568 129.73670832 196.22433568 129.73670832 189.0625 116.25 C185.12540903 113.78931814 182.43712641 113.2490406 177.88964844 113.21728516 C176.29656357 113.20170311 176.29656357 113.20170311 174.67129517 113.18580627 C173.51648651 113.17863083 172.36167786 113.17145538 171.171875 113.1640625 C168.69807136 113.13821171 166.22427589 113.11156974 163.75048828 113.08422852 C162.45371155 113.07094513 161.15693481 113.05766174 159.82086182 113.04397583 C140.19701368 112.83498035 120.77697532 112.39065966 101.265625 110.140625 C92.51089207 109.14362709 83.73285523 108.66505706 74.9375 108.1875 C74.18164612 108.14489044 73.42579224 108.10228088 72.64703369 108.05838013 C58.51454126 107.26721025 44.67669696 107.31549389 30.55078125 108.359375 C14.01175295 109.50283068 -2.4841067 109.68464287 -19.05737305 109.63574219 C-22.98065879 109.62429867 -26.90367429 109.63115875 -30.82695103 109.64264297 C-46.51645663 109.68131657 -62.0513509 109.41508945 -77.6968689 108.09631348 C-87.76933784 107.25441711 -97.77191588 107.06255716 -107.875 107.125 C-109.229422 107.12915421 -109.229422 107.12915421 -110.61120605 107.13339233 C-132.63651296 107.21135845 -154.62984595 108.05268992 -176.52270508 110.5378418 Z M105.1640625 348.33984375 C97.65220785 357.40983418 92.44225673 367.39953385 93.0625 379.375 C94.06989545 388.67109223 98.4396476 394.05217615 105.0625 400.375 C105.96742188 401.27412109 105.96742188 401.27412109 106.890625 402.19140625 C112.38570359 407.31415475 118.55215027 410.50775239 126.125 410.9375 C132.71830935 410.65038855 137.00358408 407.54227991 141.4375 402.875 C144.90777383 397.53611719 145.46070912 393.64679358 145.0625 387.375 C143.89236774 383.9546134 143.18939277 383.45959518 140.0625 381.375 C136.33353383 381.02972535 133.7397286 381.10410856 130.25 382.5 C127.49889311 384.85809162 126.9111428 386.90327945 126.0625 390.375 C124.0825 389.88 124.0825 389.88 122.0625 389.375 C121.57651869 382.08528037 121.57651869 382.08528037 123.6875 379 C129.63898972 374.92792809 136.04172517 374.57053622 143.0625 375.375 C146.62927094 376.83992378 148.33615309 377.93894009 150.0859375 381.3984375 C153.14047267 389.60925222 152.39758488 396.42322556 149.0625 404.375 C145.49821703 411.64613727 138.76089998 414.97215863 131.4375 417.75 C121.63001036 419.56620178 113.30387247 417.7987892 105 412.25 C96.87758763 406.17096181 90.26291476 399.68640893 86.0625 390.375 C85.63195312 389.45460938 85.20140625 388.53421875 84.7578125 387.5859375 C81.55251776 380.09427228 80.08690719 372.76433678 79.05029297 364.73486328 C78.9473291 363.95353027 78.84436523 363.17219727 78.73828125 362.3671875 C78.65489502 361.66964355 78.57150879 360.97209961 78.4855957 360.25341797 C78.10846589 358.05577741 78.10846589 358.05577741 76.0625 355.375 C71.84253173 358.32101558 69.64690984 361.35829049 67.5 365.9375 C67.1712085 366.61731934 66.84241699 367.29713867 66.50366211 367.99755859 C61.08959993 379.33275129 56.05912646 390.85142716 51.0625 402.375 C50.58973633 403.45974609 50.11697266 404.54449219 49.62988281 405.66210938 C48.31998899 408.68465441 47.03085707 411.71505396 45.75 414.75 C45.3588501 415.65250488 44.9677002 416.55500977 44.56469727 417.48486328 C44.21721436 418.32259277 43.86973145 419.16032227 43.51171875 420.0234375 C43.05285278 421.10890869 43.05285278 421.10890869 42.5847168 422.21630859 C41.91768985 424.97360278 42.17384026 426.68977383 43.0625 429.375 C44.41855046 430.8567601 44.41855046 430.8567601 46.23828125 431.875 C46.89481689 432.28459961 47.55135254 432.69419922 48.2277832 433.11621094 C48.93636475 433.53161133 49.64494629 433.94701172 50.375 434.375 C51.10485107 434.81360352 51.83470215 435.25220703 52.58666992 435.70410156 C61.53681256 440.97778438 70.83601434 444.38379742 80.6875 447.5625 C81.85116089 447.93810059 81.85116089 447.93810059 83.03833008 448.32128906 C108.477755 456.25785266 132.5226345 453.11147437 156.14208984 441.39648438 C160.24330843 439.21500732 163.690113 436.54431854 167.0625 433.375 C167.69285156 432.82199219 168.32320313 432.26898438 168.97265625 431.69921875 C173.52511 427.49472325 176.41382255 422.94922014 179.0625 417.375 C179.42214844 416.63765625 179.78179687 415.9003125 180.15234375 415.140625 C187.19034358 399.311765 187.74011223 381.72031332 182.0625 365.375 C177.75167658 355.33886422 170.61347464 345.80781733 160.14746094 341.60620117 C158.08922293 340.91640929 156.02312558 340.28919718 153.9375 339.6875 C153.23496094 339.47544922 152.53242188 339.26339844 151.80859375 339.04492188 C149.89790487 338.47243759 147.98044239 337.92269268 146.0625 337.375 C145.37414062 337.16875 144.68578125 336.9625 143.9765625 336.75 C129.9870393 334.00919545 115.11608503 338.03970521 105.1640625 348.33984375 Z M-205.8125 392 C-207.00359375 392.42667969 -208.1946875 392.85335938 -209.421875 393.29296875 C-216.98904966 396.06649557 -223.98970139 399.28732815 -230.9375 403.375 C-228.90817421 404.9363471 -227.0587167 406.31612332 -224.75 407.4375 C-222.9375 408.375 -222.9375 408.375 -221.9375 410.375 C-221.41673482 414.54112146 -222.24198272 417.36196018 -223.875 421.125 C-226.81351292 428.16057932 -228.01410163 434.22140657 -225.4375 441.5625 C-221.82590188 449.44122603 -215.95930344 454.29859703 -207.9375 457.375 C-200.43577751 459.75241955 -191.46278351 459.58750442 -184.375 456.1875 C-177.44548687 452.15000954 -172.62817791 446.68622867 -169.6875 439.1875 C-168.21218548 431.68798453 -167.80072859 424.86291802 -171.734375 418.08984375 C-175.38722532 412.88334605 -179.83532934 409.86423223 -185.484375 407.15234375 C-188.64111485 404.86521535 -188.91015618 403.33072157 -189.6875 399.5625 C-189.90921875 398.54542969 -190.1309375 397.52835937 -190.359375 396.48046875 C-190.92341788 393.45064382 -191.44634253 390.41744767 -191.9375 387.375 C-196.33283253 387.375 -201.72833665 390.50589832 -205.8125 392 Z " fill="#000000" transform="translate(291.9375,21.625)"/>
<path d="M0 0 C0.66730133 0.17518158 1.33460266 0.35036316 2.02212524 0.53085327 C6.81259101 1.78971197 11.59535851 3.07570742 16.375 4.375 C17.56625488 4.69774902 18.75750977 5.02049805 19.98486328 5.35302734 C33.01791715 8.92945339 45.76954468 13.07219267 58.375 17.9375 C59.51412842 18.37231689 60.65325684 18.80713379 61.8269043 19.25512695 C69.85665525 22.44764989 78.18345994 26.18345994 84.375 32.375 C85.69942887 37.24068252 85.04500716 40.63828323 83.6875 45.4375 C81.6571242 52.86658846 80.19147275 60.32852703 78.9465332 67.92797852 C77.40793355 76.66914253 74.53204382 83.90221034 68.375 90.375 C63.9051397 93.35490687 59.48743801 92.91866165 54.27880859 92.0088501 C52.18510875 91.50550813 50.12721793 90.93162606 48.0625 90.3203125 C47.29936996 90.10336227 46.53623993 89.88641205 45.74998474 89.66288757 C43.2872062 88.95633216 40.83094786 88.22991739 38.375 87.5 C37.53107697 87.25301361 36.68715393 87.00602722 35.81765747 86.7515564 C22.2295453 82.76498343 9.16185476 78.07468591 -3.87255859 72.52294922 C-8.37049501 70.6470137 -12.93525127 68.95515941 -17.5 67.25 C-24.38727859 64.6435066 -31.24818455 61.97968793 -38.0625 59.1875 C-38.83770996 58.8786084 -39.61291992 58.5697168 -40.41162109 58.25146484 C-45.25220302 56.23714092 -49.22831633 54.43917776 -52.625 50.375 C-54.85994673 41.67151576 -50.83497823 32.1429404 -48.14501953 23.92114258 C-47.37268805 21.55541828 -46.62809505 19.18222561 -45.88671875 16.80664062 C-45.40004195 15.28073734 -44.91181426 13.75532765 -44.421875 12.23046875 C-44.20190857 11.53036179 -43.98194214 10.83025482 -43.75531006 10.1089325 C-41.81519111 4.24455471 -39.20033531 -1.50937145 -33.625 -4.625 C-22.56440147 -7.10399847 -10.68682787 -2.82264029 0 0 Z M-34.625 5.375 C-36.21681181 8.32661846 -36.21681181 8.32661846 -37.3125 11.625 C-37.92738281 13.34009766 -37.92738281 13.34009766 -38.5546875 15.08984375 C-39.77413821 18.83275633 -40.7952963 22.52819194 -41.625 26.375 C-40.87734375 26.64054687 -40.1296875 26.90609375 -39.359375 27.1796875 C-38.37453125 27.53289062 -37.3896875 27.88609375 -36.375 28.25 C-35.40046875 28.59804688 -34.4259375 28.94609375 -33.421875 29.3046875 C-30.625 30.375 -30.625 30.375 -26.625 32.375 C-25.305 29.735 -23.985 27.095 -22.625 24.375 C-23.099375 23.818125 -23.57375 23.26125 -24.0625 22.6875 C-26.3536197 19.29664284 -26.87364582 16.74054681 -26.140625 12.71484375 C-25.97046875 11.94269531 -25.8003125 11.17054688 -25.625 10.375 C-17.09217564 9.81257079 -10.16631265 11.2839571 -2.125 14.0625 C-1.05507812 14.40216797 0.01484375 14.74183594 1.1171875 15.09179688 C2.65246094 15.6090332 2.65246094 15.6090332 4.21875 16.13671875 C5.13849609 16.44569092 6.05824219 16.75466309 7.00585938 17.07299805 C9.98137453 18.70824355 10.96868234 20.31957924 12.375 23.375 C12.0625 25.875 12.0625 25.875 10.375 28.375 C7.8196159 30.25458004 5.12567825 31.80318386 2.375 33.375 C0.49675109 35.25324891 0.98397603 38.41435276 0.8125 40.9375 C0.72871094 42.13503906 0.64492187 43.33257812 0.55859375 44.56640625 C0.46771484 45.95666016 0.46771484 45.95666016 0.375 47.375 C1.220625 47.99375 2.06625 48.6125 2.9375 49.25 C3.41316406 49.59804688 3.88882813 49.94609375 4.37890625 50.3046875 C10.98373822 53.84622167 17.20956176 53.48262293 24.5 53.25 C38.74859591 53.07186454 48.44121423 55.963077 59.79296875 64.44921875 C63.90274079 67.51444964 66.26204605 67.46968433 71.375 67.375 C71.59434204 66.34560303 71.59434204 66.34560303 71.81811523 65.29541016 C72.48010257 62.19633259 73.14624803 59.09816341 73.8125 56 C74.04259766 54.91976562 74.27269531 53.83953125 74.50976562 52.7265625 C74.73212891 51.6953125 74.95449219 50.6640625 75.18359375 49.6015625 C75.38782959 48.64846191 75.59206543 47.69536133 75.80249023 46.71337891 C76.375 44.375 76.375 44.375 77.375 42.375 C78.12744501 39.5474011 78.12744501 39.5474011 77.375 36.375 C72.67989323 31.69134285 66.86779433 28.94389284 60.75 26.625 C59.8935791 26.29411377 59.0371582 25.96322754 58.15478516 25.62231445 C55.23708986 24.51402075 52.30901306 23.4393263 49.375 22.375 C48.32570313 21.99327637 47.27640625 21.61155273 46.1953125 21.21826172 C29.99023426 15.40588145 13.57608009 10.64408585 -3.0625 6.25 C-3.98581116 6.00389984 -4.90912231 5.75779968 -5.8604126 5.50424194 C-8.50719349 4.80220035 -11.1570404 4.11345712 -13.80859375 3.4296875 C-14.98963432 3.11640755 -14.98963432 3.11640755 -16.1945343 2.79679871 C-23.19659253 1.02572189 -29.24516747 -0.39112524 -34.625 5.375 Z M-18.625 15.375 C-19.31659401 17.22225052 -19.31659401 17.22225052 -19.625 19.375 C-17.1247243 23.12541355 -14.53019099 23.78844971 -10.4375 25.125 C-9.46586914 25.47498047 -9.46586914 25.47498047 -8.47460938 25.83203125 C-3.67163996 27.43462044 -0.44994972 27.40131875 4.375 26.375 C4.375 25.055 4.375 23.735 4.375 22.375 C1.95681339 21.39880581 -0.46331661 20.4280347 -2.88671875 19.46484375 C-4.55948405 18.79907839 -6.22951708 18.12632602 -7.89453125 17.44140625 C-11.59652545 15.96202425 -14.62211692 14.99972971 -18.625 15.375 Z M-17.625 27.375 C-23.85404839 35.47276291 -28.24354144 44.20238805 -32.625 53.375 C-29.17883588 55.67244275 -25.60610006 57.00970079 -21.75 58.4375 C-21.04230469 58.70626953 -20.33460937 58.97503906 -19.60546875 59.25195312 C-15.96709162 60.61041609 -12.47836003 61.76299576 -8.625 62.375 C-6.23076934 56.44147184 -5.7274895 50.30243455 -5 44 C-4.8659375 42.88238281 -4.731875 41.76476562 -4.59375 40.61328125 C-4.26523113 37.86780212 -3.94249805 35.12177171 -3.625 32.375 C-8.39129061 28.91444539 -8.39129061 28.91444539 -14 27.625 C-15.19625 27.5425 -16.3925 27.46 -17.625 27.375 Z M-43.625 33.375 C-46.42929125 40.20968332 -46.42929125 40.20968332 -46.625 47.375 C-43.79119837 50.317794 -40.44127369 51.14647354 -36.625 52.375 C-35.78735732 50.41850603 -34.95500941 48.45974444 -34.125 46.5 C-33.6609375 45.40945313 -33.196875 44.31890625 -32.71875 43.1953125 C-31.50447544 40.56838071 -31.50447544 40.56838071 -31.625 38.375 C-35.62016563 34.29801671 -35.62016563 34.29801671 -41 33.0625 C-42.299375 33.2171875 -42.299375 33.2171875 -43.625 33.375 Z M-0.625 54.375 C-1.88737731 56.89975462 -1.72356404 58.68700466 -1.6875 61.5 C-1.67847656 62.41007812 -1.66945312 63.32015625 -1.66015625 64.2578125 C-1.64855469 64.95648438 -1.63695312 65.65515625 -1.625 66.375 C14.64796271 72.36098329 30.91466133 78.30501687 47.6875 82.75 C48.79971924 83.05365479 49.91193848 83.35730957 51.05786133 83.67016602 C52.0867749 83.93112061 53.11568848 84.1920752 54.17578125 84.4609375 C55.06434814 84.6882959 55.95291504 84.9156543 56.8684082 85.14990234 C59.95203104 85.4268187 61.64826227 84.79917066 64.375 83.375 C66.83628163 80.70861156 68.22510985 78.82467045 69.375 75.375 C68.56417969 75.106875 67.75335938 74.83875 66.91796875 74.5625 C59.71669721 72.01397084 54.02678386 69.08090922 48.10546875 64.2421875 C40.51193183 59.0494684 33.43994967 58.9465196 24.5 58.875 C15.62899706 58.80354198 7.4464404 58.4107202 -0.625 54.375 Z " fill="#000000" transform="translate(142.625,316.625)"/>
<path d="M0 0 C4.09246474 3.15704423 5.51667581 7.01699795 6.3203125 12.00390625 C6.56974609 13.52274414 6.56974609 13.52274414 6.82421875 15.07226562 C6.98535156 16.12091797 7.14648438 17.16957031 7.3125 18.25 C7.48136719 19.27158203 7.65023437 20.29316406 7.82421875 21.34570312 C10.71625916 39.39249075 14.30409371 64.02937724 4.65234375 80.703125 C-1.43330661 88.94715268 -11.54970072 90.2694283 -21.12884521 91.71257019 C-25.0407981 92.27243358 -28.95730277 92.79465492 -32.875 93.3125 C-34.47469565 93.53061819 -36.07430578 93.74936455 -37.67382812 93.96875 C-42.05052419 94.56530146 -46.43062453 95.13028451 -50.8125 95.6875 C-51.69808594 95.80746338 -52.58367187 95.92742676 -53.49609375 96.05102539 C-61.33851823 96.99995197 -69.25532635 96.87356395 -77.14306641 96.87280273 C-79.67497584 96.87498918 -82.20644849 96.89320044 -84.73828125 96.91210938 C-108.84965713 96.99606191 -108.84965713 96.99606191 -116.8125 91.6875 C-119.40423336 88.76541639 -120.29159529 86.51073463 -120.875 82.671875 C-121.0306543 81.67937744 -121.18630859 80.68687988 -121.34667969 79.66430664 C-121.50040039 78.59946045 -121.65412109 77.53461426 -121.8125 76.4375 C-121.97911133 75.33591553 -122.14572266 74.23433105 -122.31738281 73.09936523 C-122.83362039 69.63104824 -123.32744641 66.1603084 -123.8125 62.6875 C-123.96783203 61.57842285 -124.12316406 60.4693457 -124.28320312 59.32666016 C-124.72263778 56.13600316 -125.14700611 52.94385714 -125.5625 49.75 C-125.69011719 48.78739258 -125.81773438 47.82478516 -125.94921875 46.83300781 C-128.1662833 28.99062037 -128.1662833 28.99062037 -123.8125 21.6875 C-117.13044818 14.17245527 -107.99832354 11.3407304 -98.375 9.6875 C-97.48756104 9.52580322 -96.60012207 9.36410645 -95.68579102 9.19750977 C-87.16922097 7.67671989 -78.61195995 6.38684872 -70.04711914 5.16992188 C-63.75076567 4.24963623 -57.68112419 2.95890436 -51.5246582 1.35424805 C-48.07365864 0.50586567 -44.71825256 0.02817906 -41.1875 -0.375 C-36.9538259 -0.88699921 -32.84060951 -1.47338529 -28.6875 -2.4375 C-19.03857475 -4.4637743 -8.99539304 -4.19785009 0 0 Z M-33.33984375 5.26171875 C-34.9295826 5.50783653 -34.9295826 5.50783653 -36.55143738 5.75892639 C-39.95251767 6.28817958 -43.35127639 6.83083497 -46.75 7.375 C-49.09417345 7.74487724 -51.43841209 8.11434158 -53.78271484 8.48339844 C-59.45660697 9.37978276 -65.12834702 10.28901335 -70.79937744 11.20330811 C-73.50148235 11.63752121 -76.20430366 12.06668495 -78.90771484 12.49267578 C-82.92030563 13.1253708 -86.92928491 13.77763902 -90.9375 14.4375 C-92.03441162 14.61112061 -93.13132324 14.78474121 -94.26147461 14.96362305 C-103.80747987 16.58878301 -113.22345912 19.13126046 -119.8125 26.6875 C-122.63303293 35.14909879 -120.10753617 45.03136547 -118.875 53.625 C-118.69027609 54.9641267 -118.50602784 56.30331911 -118.32226562 57.64257812 C-117.70569643 63.8464266 -117.70569643 63.8464266 -115.8125 69.6875 C-112.34979488 68.36462547 -109.11596882 66.85363562 -105.86328125 65.078125 C-104.93193359 64.57023437 -104.00058594 64.06234375 -103.04101562 63.5390625 C-102.07873047 63.01054687 -101.11644531 62.48203125 -100.125 61.9375 C-98.71057617 61.16792969 -98.71057617 61.16792969 -97.26757812 60.3828125 C-91.75246796 57.36561134 -86.35758405 54.23031246 -81.05395508 50.85351562 C-77.29120502 48.89611509 -73.88932991 48.5554583 -69.8125 49.6875 C-67.62647077 51.01902824 -65.73117805 52.51560484 -63.76171875 54.1484375 C-57.90417613 58.77343107 -52.11205727 59.16715241 -44.84375 58.33203125 C-38.70628053 57.02702808 -33.68866108 54.0758592 -28.6875 50.375 C-24.9979969 48.2094221 -21.99686893 47.83370413 -17.8125 48.6875 C-16.90242188 49.14640625 -15.99234375 49.6053125 -15.0546875 50.078125 C-11.40202885 51.89125194 -7.87546004 52.89432584 -3.9375 53.875 C-3.24914062 54.05224609 -2.56078125 54.22949219 -1.8515625 54.41210938 C-0.17342021 54.84329871 1.50683172 55.2662638 3.1875 55.6875 C3.5874393 46.44445845 2.9907227 37.49233608 1.875 28.3125 C1.69843872 26.79849609 1.69843872 26.79849609 1.51831055 25.25390625 C0.33968208 13.8275319 0.33968208 13.8275319 -5.8125 4.6875 C-14.45134945 1.87540773 -24.58889403 3.84597439 -33.33984375 5.26171875 Z M-28.3125 58 C-36.26781752 63.71210299 -45.08046816 65.79446097 -54.8125 64.6875 C-61.36449542 63.49078851 -65.9415138 61.33753142 -70.828125 56.796875 C-73.79731029 55.13693677 -75.60158499 55.78468547 -78.8125 56.6875 C-81.29835758 58.01072495 -81.29835758 58.01072495 -83.6875 59.75 C-93.40471809 66.20159562 -104.10876818 71.10018636 -114.8125 75.6875 C-114.79924988 78.78802761 -114.61504817 81.68441653 -113.8125 84.6875 C-102.70054443 94.56479384 -79.30171642 91.14317617 -65.30078125 90.51171875 C-54.79320039 89.82416723 -44.35992363 88.27114752 -33.9375 86.8125 C-33.00373535 86.68366425 -32.0699707 86.55482849 -31.10791016 86.42208862 C-28.40611914 86.04524581 -25.70680215 85.65417524 -23.0078125 85.2578125 C-22.20022491 85.14519577 -21.39263733 85.03257904 -20.56057739 84.91654968 C-13.36838346 83.8268333 -5.9714085 82.14120327 -0.8125 76.6875 C1.62813139 72.09163362 2.57970395 67.91688605 2.1875 62.6875 C0.99125 62.295625 -0.205 61.90375 -1.4375 61.5 C-6.92764807 59.68160701 -12.34873148 57.67902236 -17.7734375 55.67578125 C-22.80994223 54.03794616 -24.31068651 54.86221442 -28.3125 58 Z " fill="#000000" transform="translate(197.8125,184.3125)"/>
<path d="M0 0 C1.01433105 0.11375977 2.02866211 0.22751953 3.07373047 0.34472656 C24.71387762 2.99627212 24.71387762 2.99627212 32 9.625 C39.16924901 20.15483449 34.7401569 39.94028527 32.59326172 51.88867188 C30.39888858 62.78520473 27.64082567 73.13219904 18 79.625 C6.0481673 84.821449 -8.23766745 82.59134953 -20.82910156 81.50805664 C-23.09896796 81.31471732 -25.36962661 81.13456184 -27.640625 80.95507812 C-63.27763817 78.00880985 -63.27763817 78.00880985 -76.546875 67.38671875 C-82.36241089 60.33616314 -81.31194056 46.50466638 -81.375 37.9375 C-81.38877686 36.90544434 -81.40255371 35.87338867 -81.41674805 34.81005859 C-81.34292113 22.42485427 -78.80165186 11.97919013 -70.375 2.75 C-63.06697898 -1.85134657 -53.51641395 -1.74824994 -45.0625 -2.0625 C-43.56662354 -2.12002441 -43.56662354 -2.12002441 -42.04052734 -2.17871094 C-27.90328564 -2.63207224 -14.04183527 -1.60537686 0 0 Z M-67 8.625 C-68.65812872 10.35550664 -68.65812872 10.35550664 -69.75 12.375 C-70.13671875 13.00921875 -70.5234375 13.6434375 -70.921875 14.296875 C-73.53064925 19.93031505 -74.29820296 25.40782246 -74.625 31.5625 C-74.66367187 32.24634766 -74.70234375 32.93019531 -74.7421875 33.63476562 C-74.83522412 35.29779513 -74.91863787 36.96135847 -75 38.625 C-71.47112682 38.03685447 -69.71237269 36.73881134 -67.125 34.3125 C-61.75570714 29.4431413 -57.05196414 25.50043303 -49.5 25.4375 C-48.7265625 25.42332031 -47.953125 25.40914063 -47.15625 25.39453125 C-45 25.625 -45 25.625 -42 27.625 C-40.41147916 32.39056252 -40.63106794 36.38799251 -42.0625 41.1875 C-43.073712 44.89527732 -43.0821235 46.96242814 -42 50.625 C-41.04451019 52.58125978 -41.04451019 52.58125978 -39 53.625 C-34.366693 54.76433779 -32.22373191 55.18791668 -27.875 53.1875 C-24.35535897 50.05042864 -21.46011452 46.65540038 -19 42.625 C-19 41.965 -19 41.305 -19 40.625 C-15.92670687 40.27038925 -13.06152757 40.11738921 -10 40.625 C-7.22251439 43.61613835 -6.17334643 46.05078997 -5 49.9375 C-4.28109721 52.6915297 -4.28109721 52.6915297 -2.25 53.75 C2.93341792 53.46203234 7.1088182 48.75956312 11 45.625 C14.80955639 43.72022181 18.40716321 44.44934465 22.375 45.625 C23.24125 45.955 24.1075 46.285 25 46.625 C28.61355778 43.01144222 27.34552716 32.26355868 27.4375 27.5 C27.50614258 26.03626953 27.50614258 26.03626953 27.57617188 24.54296875 C27.59099609 23.59808594 27.60582031 22.65320313 27.62109375 21.6796875 C27.65867798 20.40327393 27.65867798 20.40327393 27.69702148 19.10107422 C26.64547439 15.36559589 24.20725587 13.54824476 21 11.625 C18.3080588 10.6627919 15.97148078 9.97720601 13.203125 9.42578125 C12.43188293 9.26427078 11.66064087 9.10276031 10.86602783 8.93635559 C1.02379758 7.03523232 -8.95820039 6.50958142 -18.95117188 5.98657227 C-22.26042147 5.81195008 -25.56741607 5.61175051 -28.875 5.40820312 C-48.54704994 3.45991184 -48.54704994 3.45991184 -67 8.625 Z M-57.4375 34.3125 C-58.39785156 35.03953125 -59.35820312 35.7665625 -60.34765625 36.515625 C-62.40771924 38.1539667 -64.4033533 39.82130552 -66.375 41.5625 C-69.12404243 43.72246191 -70.63337091 44.09016762 -74 44.625 C-73.66997578 54.57680003 -73.66997578 54.57680003 -70 63.625 C-52.86279019 75.96379106 -22.19154367 74.81679425 -2.1875 75.0625 C-1.17494141 75.08473633 -0.16238281 75.10697266 0.88085938 75.12988281 C7.00351884 75.11125403 11.97298981 74.32507183 17 70.625 C20.81916997 65.46395951 22.36395672 59.78495082 24 53.625 C20.47114993 51.2052171 18.28478452 50.12166688 14 50.625 C11.75263141 52.06101694 11.75263141 52.06101694 9.6875 54 C5.42362443 57.497655 2.49044858 58.98444767 -3 59.625 C-6.25843216 58.77497422 -7.62540321 57.99959679 -10 55.625 C-10.59834554 54.10443382 -11.13506656 52.55887912 -11.625 51 C-11.88539063 50.18273437 -12.14578125 49.36546875 -12.4140625 48.5234375 C-12.60742188 47.89695312 -12.80078125 47.27046875 -13 46.625 C-13.66 46.625 -14.32 46.625 -15 46.625 C-16.8108283 49.05616243 -18.41308538 51.59414196 -20.05078125 54.14453125 C-22.87292947 57.73584211 -25.33195088 59.37274734 -29.8671875 60.05859375 C-36.45988718 60.0671557 -40.73624061 59.74446387 -46 55.625 C-48.79134099 51.23191637 -48.43553268 46.66238744 -48 41.625 C-47.3530635 39.9505761 -46.69040574 38.28197379 -46 36.625 C-46.30087716 33.39671763 -46.30087716 33.39671763 -47 30.625 C-51.67767852 30.12593484 -53.76838161 31.49690702 -57.4375 34.3125 Z " fill="#000000" transform="translate(346,265.375)"/>
<path d="M0 0 C15.36952836 -0.98057157 15.36952836 -0.98057157 20.01611328 2.61132812 C27.32156025 11.04525878 29.03007269 22.71220077 28.95361328 33.48632812 C28.94624146 34.72419067 28.94624146 34.72419067 28.9387207 35.98706055 C28.78776586 43.91180276 28.25575862 52.18799303 23.32861328 58.73632812 C14.21233317 67.00458218 1.02336654 66.36560446 -10.60888672 66.54882812 C-11.97400391 66.58786255 -11.97400391 66.58786255 -13.36669922 66.62768555 C-21.29527403 66.64851242 -28.23615348 64.89791457 -34.29638672 59.61132812 C-39.99371724 51.53843223 -39.98384021 40.6492678 -40.35888672 31.17382812 C-40.42333984 30.26246094 -40.48779297 29.35109375 -40.55419922 28.41210938 C-40.91894216 20.66740087 -38.985188 14.19407459 -33.85888672 8.29882812 C-24.19382857 1.49481953 -11.41207771 0.84096453 0 0 Z M-31.35888672 17.17382812 C-33.96760507 21.87309474 -33.62114073 26.64035027 -33.54638672 31.86132812 C-33.54574219 32.72822266 -33.54509766 33.59511719 -33.54443359 34.48828125 C-33.65865098 38.98324573 -33.65865098 38.98324573 -32.35888672 43.17382812 C-26.91388672 42.67882812 -26.91388672 42.67882812 -21.35888672 42.17382812 C-18.38283797 32.90455377 -15.569357 23.66267617 -13.35888672 14.17382812 C-12.03888672 13.84382812 -10.71888672 13.51382813 -9.35888672 13.17382812 C-9.28412109 13.71007812 -9.20935547 14.24632812 -9.13232422 14.79882812 C-7.61834717 23.82331878 -4.45598989 32.97962178 -0.35888672 41.17382812 C7.18784363 40.77105319 14.38084575 40.35190838 21.64111328 38.17382812 C22.23961137 29.09660707 21.30482511 20.58251916 17.64111328 12.17382812 C13.89529043 7.78239197 13.89529043 7.78239197 8.64111328 6.17382812 C-4.75548089 5.41553034 -21.64893937 6.96593476 -31.35888672 17.17382812 Z M-12.35888672 27.17382812 C-12.58962891 28.33398438 -12.82037109 29.49414062 -13.05810547 30.68945312 C-14.81459512 39.20532394 -16.75235526 47.06327797 -20.40576172 54.98632812 C-21.49203483 57.08172606 -21.49203483 57.08172606 -21.35888672 59.17382812 C-19.07546928 59.84537496 -19.07546928 59.84537496 -16.35888672 59.17382812 C-14.34616833 56.6932887 -12.84001586 53.99742751 -11.35888672 51.17382812 C-8.84785415 51.5483729 -7.68239321 51.75746329 -6.09326172 53.80273438 C-4.72607422 56.48828125 -4.72607422 56.48828125 -3.35888672 59.17382812 C-1.70888672 59.17382812 -0.05888672 59.17382812 1.64111328 59.17382812 C0.3104172 55.70216062 -1.20695952 52.35635244 -2.8215332 49.00805664 C-6.2481088 41.88441045 -9.08420274 34.76081754 -11.35888672 27.17382812 C-11.68888672 27.17382812 -12.01888672 27.17382812 -12.35888672 27.17382812 Z M19.64111328 44.17382812 C17.16022973 44.45445755 14.68202143 44.74773412 12.20361328 45.04882812 C11.4965625 45.12746094 10.78951172 45.20609375 10.06103516 45.28710938 C8.24437896 45.51310488 6.44048806 45.83683539 4.64111328 46.17382812 C4.31111328 46.83382812 3.98111328 47.49382812 3.64111328 48.17382812 C4.28048828 49.10195312 4.91986328 50.03007812 5.57861328 50.98632812 C7.64111328 54.17382812 7.64111328 54.17382812 8.64111328 57.17382812 C12.00794509 57.5586089 13.41293999 57.31709973 16.32861328 55.48632812 C18.76494617 53.04999524 19.80984985 51.49888185 20.64111328 48.17382812 C20.21637665 46.05722296 20.21637665 46.05722296 19.64111328 44.17382812 Z M-31.35888672 49.17382812 C-30.66345232 52.17766867 -30.66345232 52.17766867 -29.35888672 55.17382812 C-27.32645124 56.1425987 -27.32645124 56.1425987 -25.35888672 56.17382812 C-24.69888672 53.86382812 -24.03888672 51.55382812 -23.35888672 49.17382812 C-25.99888672 49.17382812 -28.63888672 49.17382812 -31.35888672 49.17382812 Z " fill="#000000" transform="translate(396.35888671875,167.826171875)"/>
<path d="M0 0 C4.97531673 3.88074705 6.82988385 7.11346033 7.625 13.375 C7.35831706 17.95305712 5.80209191 21.7339158 3.125 25.4375 C-2.46123915 29.97631931 -6.76644657 30.91943583 -13.875 30.4375 C-19.93637691 28.45187653 -23.9047523 25.6615417 -27.25 20.1875 C-28.35106497 15.34281414 -28.22401474 10.79148546 -25.7109375 6.40625 C-19.54660453 -1.37333599 -9.16881832 -4.56473359 0 0 Z M-19.875 7.4375 C-22.13283984 10.68314476 -22.875 12.5516366 -22.875 16.5 C-21.6129396 20.20730244 -19.86216784 21.94819347 -16.875 24.4375 C-12.7866659 25.80027803 -9.03411373 26.31504723 -4.93359375 24.6484375 C-1.73502835 22.89890904 0.08665263 21.49502105 2.125 18.4375 C2.86465025 13.84478797 2.73461194 10.41287911 0.25 6.4375 C-3.2544057 3.13923581 -5.83182061 3.09267131 -10.48828125 3.16015625 C-14.52039012 3.62869918 -16.6281172 4.96986907 -19.875 7.4375 Z " fill="#000000" transform="translate(167.875,200.5625)"/>
<path d="M0 0 C4.05154283 2.10079999 6.33738092 3.76445908 8 8 C8.76842846 13.42753158 9.0107593 17.63410905 5.6875 22.125 C1.425079 25.09878209 -1.87386522 25.4344182 -7 25 C-11.33976986 22.74665796 -14.09688482 20.54633071 -16 16 C-16.53715295 10.98657251 -16.12527558 7.98742057 -13 4 C-9.14188834 -0.07857518 -5.46794207 -1.07004737 0 0 Z M-7.625 7.1875 C-10.15056272 9.73481833 -10.15056272 9.73481833 -10.5625 12.5625 C-9.80167555 15.85940593 -8.75181556 17.04476263 -6 19 C-2.80080869 19.45702733 -0.91279226 19.50056349 1.9375 17.9375 C3.71006293 14.70517937 2.96909328 12.45239482 2 9 C-0.30068019 6.50789479 -0.30068019 6.50789479 -3 5 C-5.31342361 4.7866052 -5.31342361 4.7866052 -7.625 7.1875 Z " fill="#000000" transform="translate(202,346)"/>
<path d="M0 0 C1.8984375 0.14453125 1.8984375 0.14453125 4 1 C7.50761513 6.14514816 11.4447282 13.59041717 10.625 19.875 C10.41875 20.57625 10.2125 21.2775 10 22 C7.15532857 21.69246795 5.46970455 21.45163899 3.375 19.4375 C-0.10400893 13.27016599 -1.49778849 8.09348592 -1 1 C-0.67 0.67 -0.34 0.34 0 0 Z " fill="#000000" transform="translate(88,438)"/>
<path d="M0 0 C6.47164752 0.26414888 9.4810219 2.50339308 14 7 C14.56847656 7.50402344 15.13695313 8.00804687 15.72265625 8.52734375 C16.14417969 9.01332031 16.56570312 9.49929688 17 10 C16.6875 12.6875 16.6875 12.6875 16 15 C11.82223052 14.75424885 9.56787473 14.47543 6.3125 11.75 C5.1678125 10.38875 5.1678125 10.38875 4 9 C3.236875 8.154375 2.47375 7.30875 1.6875 6.4375 C0 4 0 4 0 0 Z " fill="#000000" transform="translate(95,435)"/>
<path d="M0 0 C0.99 0.33 1.98 0.66 3 1 C3.25028042 3.7078532 3.47571011 6.41408936 3.6875 9.125 C3.76033203 9.88554687 3.83316406 10.64609375 3.90820312 11.4296875 C4.27843828 16.48230845 3.75948362 19.55928858 1 24 C-0.9375 23.375 -0.9375 23.375 -3 22 C-4.88547472 16.48861236 -4.10220789 9.6527519 -3 4 C-1.453125 1.6328125 -1.453125 1.6328125 0 0 Z " fill="#000000" transform="translate(80,437)"/>
</svg>
