<?xml version="1.0" encoding="UTF-8"?>
<svg version="1.1" xmlns="http://www.w3.org/2000/svg" width="512" height="512">
<path d="M0 0 C5.31017949 3.87549942 9.11829476 8.37842411 11.2265625 14.625 C11.48827553 17.55160999 11.48827553 17.55160999 11.5050354 20.84492493 C11.51619888 22.09709305 11.52736237 23.34926117 11.53886414 24.63937378 C11.54122885 26.0191037 11.54340455 27.39883396 11.54541016 28.77856445 C11.55471241 30.23741713 11.56488152 31.6962645 11.57585144 33.15510559 C11.60313213 37.10921761 11.6182951 41.06329403 11.63127947 45.01747537 C11.64691846 49.15216923 11.67370624 53.2867905 11.6993103 57.4214325 C11.74608448 65.24816744 11.78283518 73.07491605 11.81598318 80.90171927 C11.85421418 89.81343967 11.90362178 98.72508714 11.95396733 107.63674605 C12.05726694 125.96611065 12.14653376 144.29551977 12.2265625 162.625 C12.60969604 162.23520462 12.99282959 161.84540924 13.38757324 161.44380188 C17.40209048 157.3625518 21.42741601 153.29218906 25.45898438 149.2277832 C26.95913981 147.71260683 28.45658358 146.1947404 29.95117188 144.67407227 C32.10868222 142.47988424 34.27598702 140.29578134 36.4453125 138.11328125 C37.10398315 137.43912674 37.76265381 136.76497223 38.44128418 136.07038879 C45.66309343 128.84602289 51.98900197 124.57461033 62.3515625 124.25 C69.87577025 124.3260021 75.42846634 126.23729135 81.0703125 131.26953125 C87.37985697 138.12033567 88.7910946 144.32425224 88.48828125 153.4921875 C87.16283948 169.35792332 68.77639141 182.25098187 58.12109375 192.93359375 C56.9927842 194.06614436 56.9927842 194.06614436 55.84168053 195.22157478 C51.87344571 199.2046725 47.90244575 203.18498747 43.92895508 207.1628418 C39.84379028 211.25352309 35.76801495 215.35343002 31.69427967 219.45548916 C28.53794811 222.63047208 25.37490152 225.79870028 22.20999718 228.96513557 C20.70410238 230.47404345 19.20069261 231.98543587 17.69989967 233.49941826 C15.60231928 235.61413785 13.49538321 237.71909725 11.38598633 239.82202148 C10.77747833 240.43974426 10.16897034 241.05746704 9.54202271 241.69390869 C2.68767978 248.48289731 -4.34000787 253.02931207 -14.1484375 253.9375 C-26.48044376 252.87439601 -34.25481883 245.44182981 -42.6706543 237.03417969 C-43.41481598 236.29834152 -44.15897766 235.56250336 -44.9256897 234.80436707 C-47.36341176 232.39057553 -49.79356088 229.96934583 -52.22265625 227.546875 C-53.92553194 225.85297602 -55.6284801 224.15914988 -57.33149719 222.46539307 C-60.89145935 218.92187563 -64.4470445 215.37402809 -68.00024414 211.82373047 C-72.54103444 207.28832989 -77.09777094 202.76931927 -81.65861797 198.2541008 C-85.178513 194.76402231 -88.68702842 191.26267072 -92.19254494 187.75815582 C-93.86729032 186.08760076 -95.54613387 184.4211432 -97.22922325 182.75899506 C-99.58635889 180.42887632 -101.92699345 178.08328147 -104.2644043 175.73339844 C-104.95386642 175.0587706 -105.64332855 174.38414276 -106.35368347 173.68907166 C-111.75934066 168.20135797 -116.65762281 161.5511617 -117.40234375 153.6484375 C-117.24675233 145.10006177 -116.91585708 139.0549628 -110.97265625 132.69921875 C-103.94539653 126.1086043 -97.77328764 124.30613865 -88.25 124.12890625 C-79.29442334 125.40683685 -73.57843967 130.10515493 -67.45703125 136.453125 C-66.71510025 137.20213074 -65.97316925 137.95113647 -65.20875549 138.72283936 C-62.86404702 141.09532159 -60.53742316 143.48465948 -58.2109375 145.875 C-56.61509995 147.49594207 -55.01810543 149.11574595 -53.41992188 150.734375 C-49.52428575 154.68485452 -45.64331028 158.64928807 -41.7734375 162.625 C-41.77197094 161.89300227 -41.77050438 161.16100454 -41.76899338 160.40682507 C-41.73187327 142.56080983 -41.67278979 124.71498949 -41.58953476 106.86912823 C-41.54979709 98.23883965 -41.5173779 89.60864156 -41.50244141 80.97827148 C-41.48939746 73.45231667 -41.46236319 65.9265614 -41.41882443 58.40071899 C-41.39627097 54.41916849 -41.38052312 50.43786355 -41.38155365 46.45624352 C-41.38230391 42.70093253 -41.36420815 38.94616308 -41.33226967 35.19099236 C-41.31982195 33.17138297 -41.32680608 31.15168235 -41.33457947 29.13204956 C-41.22755641 19.69531215 -40.06053823 10.95927784 -33.5859375 3.6875 C-23.99751707 -4.74544482 -11.24585768 -6.44713665 0 0 Z " fill="#000000" transform="translate(372.7734375,182.375)"/>
<path d="M0 0 C1.18319521 -0.0055344 2.36639043 -0.01106879 3.58544004 -0.0167709 C6.83848278 -0.02795523 10.09090778 -0.02141528 13.34391928 -0.00703418 C16.86406322 0.00413878 20.38414196 -0.00788765 23.90428162 -0.01687622 C30.78734174 -0.03076706 37.67021767 -0.02328381 44.55326892 -0.00820064 C52.57625508 0.00870776 60.59919598 0.0054432 68.62219445 0.00170528 C82.94009179 -0.00416549 97.25790102 0.00996849 111.57577515 0.03465271 C125.45634258 0.05858016 139.33679236 0.06565247 153.21737671 0.05516052 C168.35035548 0.04374234 183.48327991 0.04183168 198.61625803 0.05625862 C200.23084982 0.05778439 201.84544161 0.05930475 203.46003342 0.06081963 C204.25435001 0.06157744 205.0486666 0.06233525 205.8670534 0.06311603 C211.454454 0.0678512 217.04183027 0.06601294 222.6292305 0.06175423 C229.4403349 0.05681954 236.25132825 0.06284788 243.06240727 0.08264852 C246.53495891 0.09249621 250.00734172 0.09765303 253.47990227 0.08975601 C257.24890742 0.08379507 261.01741646 0.09632489 264.78637695 0.11352539 C265.87714212 0.10751535 266.96790729 0.1015053 268.09172595 0.09531313 C277.29307963 0.17161108 285.95670951 1.8780396 292.76620483 8.50120544 C298.98759281 16.7372916 299.48250718 24.43083714 298.76620483 34.50120544 C297.11623987 41.59159541 291.49940208 46.38258482 285.76620483 50.50120544 C282.22252311 52.1645162 279.43754341 52.75233787 275.53495312 52.75847435 C274.49536298 52.76492324 273.45577284 52.77137213 272.38467997 52.77801645 C271.24908949 52.77491924 270.11349902 52.77182204 268.9434967 52.76863098 C267.73205406 52.77316209 266.52061141 52.77769321 265.27245837 52.78236163 C261.91286166 52.79283386 258.55347899 52.79433114 255.19388115 52.79197288 C251.56936301 52.79156472 247.9448768 52.80260377 244.32037354 52.81208801 C237.22031456 52.82869929 230.1202888 52.83419762 223.02021202 52.83531277 C217.24856013 52.8362632 211.47691919 52.84037324 205.70527077 52.84671402 C189.34008532 52.86432691 172.9749261 52.87355284 156.6097311 52.87205307 C155.72752222 52.87197316 154.84531333 52.87189325 153.93637085 52.87181091 C153.05308425 52.87172915 152.16979766 52.87164739 151.2597448 52.87156315 C136.94529914 52.87075028 122.63095871 52.8898882 108.31654348 52.91808765 C93.61713775 52.94681692 78.91778333 52.96062791 64.2183488 52.95890009 C55.96632336 52.9582362 47.71440822 52.96372824 39.46240807 52.9852562 C32.43629703 53.0034686 25.4103463 53.00781491 18.38422187 52.99423735 C14.80038722 52.98770787 11.21686012 52.98758933 7.63305473 53.00494385 C3.74518211 53.02357692 -0.14224161 53.01111934 -4.03013611 52.99568176 C-5.72348358 53.01111245 -5.72348358 53.01111245 -7.45104009 53.02685487 C-15.14254212 52.95931392 -20.45237235 51.74720556 -26.44082642 46.60667419 C-32.5914916 39.25879924 -34.84370523 33.39043793 -34.57754517 23.71995544 C-33.81481367 16.57801505 -30.76988697 10.90833445 -25.41232526 6.11497027 C-17.87843249 0.53417469 -9.05253631 -0.08004177 0 0 Z " fill="#000000" transform="translate(85.23379516601563,75.49879455566406)"/>
<path d="M0 0 C0.78705092 -0.0060911 1.57410184 -0.01218221 2.38500279 -0.01845789 C5.00723979 -0.03503081 7.62898815 -0.03032031 10.25126648 -0.0255127 C12.13753257 -0.0328564 14.02379417 -0.04144351 15.91004944 -0.05117798 C21.02381953 -0.07337237 26.13742838 -0.07632564 31.25124002 -0.07443047 C35.52542776 -0.07431065 39.79958148 -0.08287929 44.07375973 -0.09120798 C54.16110935 -0.1104351 64.24837622 -0.11332859 74.33573914 -0.10656738 C84.72920582 -0.09992893 95.12231741 -0.12278477 105.51571208 -0.15988111 C114.45013892 -0.19060866 123.38445172 -0.20193476 132.31893033 -0.1980443 C137.65017119 -0.19597975 142.98113577 -0.20141067 148.31232643 -0.22593689 C153.32840244 -0.24825148 158.34390255 -0.2462869 163.35998154 -0.22600937 C165.19571953 -0.22260752 167.03149664 -0.22765268 168.86718178 -0.24199295 C179.32470777 -0.31801742 188.6060775 -0.31049778 196.78377247 7.10367584 C202.13745924 12.63334299 204.02986108 18.69325294 204.39848328 26.26940918 C204.14776831 34.55344956 201.08969742 40.67160274 195.08598328 46.33190918 C189.22635716 51.41691522 182.38046604 52.8464441 174.8285675 52.78208923 C174.05699637 52.78747477 173.28542523 52.79286031 172.49047315 52.79840904 C169.92660327 52.8126211 167.36325463 52.80560181 164.79936218 52.79846191 C162.95235787 52.80416906 161.10535708 52.81113465 159.25836182 52.81925964 C154.25620646 52.83716901 149.25422674 52.83602672 144.25204897 52.83031726 C140.06976991 52.82722191 135.88752442 52.83332179 131.70525014 52.83935601 C121.83506235 52.85339261 111.96496113 52.85184739 102.09477234 52.8404541 C91.92683839 52.82897616 81.75916831 52.84304514 71.59126914 52.86985058 C62.84790527 52.89203387 54.10462407 52.89863895 45.36123407 52.89277416 C40.14518881 52.8894094 34.92931265 52.89178768 29.71329117 52.90902519 C24.80642111 52.92453393 19.89994074 52.92049521 14.99308586 52.90172005 C13.19766627 52.89804491 11.40221756 52.90111113 9.60682487 52.91160583 C-1.03449431 52.96903391 -9.66265772 52.40081034 -18.91401672 46.64440918 C-25.91508837 39.44330692 -27.54083442 32.63686129 -27.44136047 22.78894043 C-26.67639295 15.14805792 -22.98375238 9.46965289 -17.14057922 4.64831543 C-11.43559541 1.14007826 -6.66866282 -0.04909228 0 0 Z " fill="#000000" transform="translate(78.10151672363281,178.6055908203125)"/>
<path d="M0 0 C1.40014847 -0.01073296 1.40014847 -0.01073296 2.82858276 -0.02168274 C4.35436951 -0.02571609 4.35436951 -0.02571609 5.91098022 -0.02983093 C7.52636185 -0.03968773 7.52636185 -0.03968773 9.17437744 -0.04974365 C12.74071321 -0.06946398 16.30700685 -0.0811374 19.87338257 -0.09111023 C21.09287975 -0.09518576 22.31237694 -0.09926128 23.56882858 -0.10346031 C30.02532532 -0.1243171 36.48180084 -0.13861973 42.93832397 -0.147995 C49.59614354 -0.15804229 56.25358146 -0.19344043 62.91129494 -0.23316669 C68.03984179 -0.25935566 73.16830913 -0.26768897 78.29691696 -0.27127647 C80.75041335 -0.27613761 83.20390631 -0.28773801 85.65733719 -0.30631447 C89.09892297 -0.33075012 92.53964614 -0.32973212 95.98129272 -0.32279968 C96.9863385 -0.33560974 97.99138428 -0.3484198 99.02688599 -0.36161804 C106.98654402 -0.30346017 113.38639282 1.69068296 120.14682007 5.89717102 C127.14789171 13.09827328 128.77363777 19.90471891 128.67416382 29.75263977 C127.90919629 37.39352228 124.21655573 43.07192731 118.37338257 47.89326477 C111.51583452 52.11026271 105.98227774 52.5893639 98.04989624 52.5670929 C96.9335228 52.57556244 95.81714935 52.58403198 94.66694641 52.59275818 C90.98694372 52.61610212 87.30735987 52.61715082 83.62728882 52.61592102 C81.06049941 52.62302473 78.49371158 52.63072403 75.92692566 52.63899231 C70.54957013 52.65243164 65.17237736 52.65419047 59.79501343 52.64814758 C53.6003812 52.64151367 47.40634545 52.66435257 41.21183413 52.70146132 C35.22903459 52.73598691 29.24654928 52.74248483 23.26363564 52.7383728 C20.72920265 52.74006175 18.19476165 52.74968242 15.66039085 52.76751709 C12.10876139 52.78975829 8.55855389 52.77997626 5.00692749 52.7624054 C3.96919189 52.77566864 2.9314563 52.78893188 1.86227417 52.80259705 C-5.99000291 52.71275618 -12.66180588 50.78972008 -18.5785799 45.4068985 C-24.89091803 38.63859705 -26.1901317 32.37584256 -25.95083618 23.30342102 C-25.34027076 16.54538183 -22.88599472 10.68769052 -17.66567993 6.14717102 C-11.92347366 2.34642626 -6.93181627 0.03660543 0 0 Z " fill="#000000" transform="translate(76.66567993164063,280.8528289794922)"/>
</svg>
